<svg xmlns="http://www.w3.org/2000/svg" xmlns:xlink="http://www.w3.org/1999/xlink" contentStyleType="text/css" data-diagram-type="CLASS" height="1110px" preserveAspectRatio="none" style="width:2110px;height:1110px;background:#FFFFFF;" version="1.1" viewBox="0 0 2110 1110" width="2110px" zoomAndPan="magnify"><defs/><g><!--class Game--><g class="entity" data-entity="Game" data-source-line="1" data-uid="ent0002" id="entity_Game"><rect fill="#F1F1F1" height="455.4219" rx="2.5" ry="2.5" style="stroke:#181818;stroke-width:0.5;" width="421.7871" x="1175.14" y="7"/><ellipse cx="1360.9442" cy="23" fill="#ADD1B2" rx="11" ry="11" style="stroke:#181818;stroke-width:1;"/><path d="M1363.9129,28.6406 Q1363.3348,28.9375 1362.6942,29.0781 Q1362.0536,29.2344 1361.3504,29.2344 Q1358.8504,29.2344 1357.5223,27.5938 Q1356.2098,25.9375 1356.2098,22.8125 Q1356.2098,19.6875 1357.5223,18.0313 Q1358.8504,16.375 1361.3504,16.375 Q1362.0536,16.375 1362.6942,16.5313 Q1363.3504,16.6875 1363.9129,16.9844 L1363.9129,19.7031 Q1363.2879,19.125 1362.6942,18.8594 Q1362.1004,18.5781 1361.4754,18.5781 Q1360.1317,18.5781 1359.4442,19.6563 Q1358.7567,20.7188 1358.7567,22.8125 Q1358.7567,24.9063 1359.4442,25.9844 Q1360.1317,27.0469 1361.4754,27.0469 Q1362.1004,27.0469 1362.6942,26.7813 Q1363.2879,26.5 1363.9129,25.9219 L1363.9129,28.6406 Z " fill="#000000"/><text fill="#000000" font-family="sans-serif" font-size="14" lengthAdjust="spacing" textLength="41.6787" x="1381.4442" y="27.8467">Game</text><line style="stroke:#181818;stroke-width:0.5;" x1="1176.14" x2="1595.9271" y1="39" y2="39"/><rect fill="none" height="6" style="stroke:#C82930;stroke-width:1;" width="6" x="1183.14" y="49.6484"/><text fill="#000000" font-family="sans-serif" font-size="14" lengthAdjust="spacing" textLength="72.0986" x="1195.14" y="55.9951">Map* map</text><rect fill="none" height="6" style="stroke:#C82930;stroke-width:1;" width="6" x="1183.14" y="65.9453"/><text fill="#000000" font-family="sans-serif" font-size="14" lengthAdjust="spacing" textLength="99.0254" x="1195.14" y="72.292">Player* player</text><rect fill="none" height="6" style="stroke:#C82930;stroke-width:1;" width="6" x="1183.14" y="82.2422"/><text fill="#000000" font-family="sans-serif" font-size="14" lengthAdjust="spacing" textLength="132.46" x="1195.14" y="88.5889">Treasure* treasure</text><rect fill="none" height="6" style="stroke:#C82930;stroke-width:1;" width="6" x="1183.14" y="98.5391"/><text fill="#000000" font-family="sans-serif" font-size="14" lengthAdjust="spacing" textLength="93.4336" x="1195.14" y="104.8857">Pirate* pirate</text><rect fill="none" height="6" style="stroke:#C82930;stroke-width:1;" width="6" x="1183.14" y="114.8359"/><text fill="#000000" font-family="sans-serif" font-size="14" lengthAdjust="spacing" textLength="139.2344" x="1195.14" y="121.1826">Trap* trap[NBTRAP]</text><rect fill="none" height="6" style="stroke:#C82930;stroke-width:1;" width="6" x="1183.14" y="131.1328"/><text fill="#000000" font-family="sans-serif" font-size="14" lengthAdjust="spacing" textLength="171.3018" x="1195.14" y="137.4795">GameState currentState</text><rect fill="none" height="6" style="stroke:#C82930;stroke-width:1;" width="6" x="1183.14" y="147.4297"/><text fill="#000000" font-family="sans-serif" font-size="14" lengthAdjust="spacing" textLength="120.791" x="1195.14" y="153.7764">int gameFinished</text><rect fill="none" height="6" style="stroke:#C82930;stroke-width:1;" width="6" x="1183.14" y="163.7266"/><text fill="#000000" font-family="sans-serif" font-size="14" lengthAdjust="spacing" textLength="395.7871" x="1195.14" y="170.0732">TransitionAction transitionMatrix[STATE_NB][EVENT_NB]</text><line style="stroke:#181818;stroke-width:0.5;" x1="1176.14" x2="1595.9271" y1="177.375" y2="177.375"/><ellipse cx="1186.14" cy="191.0234" fill="#84BE84" rx="3" ry="3" style="stroke:#038048;stroke-width:1;"/><text fill="#000000" font-family="sans-serif" font-size="14" lengthAdjust="spacing" textLength="134.668" x="1195.14" y="194.3701">newGame() Game*</text><ellipse cx="1186.14" cy="207.3203" fill="#84BE84" rx="3" ry="3" style="stroke:#038048;stroke-width:1;"/><text fill="#000000" font-family="sans-serif" font-size="14" lengthAdjust="spacing" textLength="184.6387" x="1195.14" y="210.667">gameInitialisation(Game*)</text><ellipse cx="1186.14" cy="223.6172" fill="#84BE84" rx="3" ry="3" style="stroke:#038048;stroke-width:1;"/><text fill="#000000" font-family="sans-serif" font-size="14" lengthAdjust="spacing" textLength="129.1924" x="1195.14" y="226.9639">freeGame(Game*)</text><ellipse cx="1186.14" cy="239.9141" fill="#84BE84" rx="3" ry="3" style="stroke:#038048;stroke-width:1;"/><text fill="#000000" font-family="sans-serif" font-size="14" lengthAdjust="spacing" textLength="131.7695" x="1195.14" y="243.2607">gamePrint(Game*)</text><ellipse cx="1186.14" cy="256.2109" fill="#84BE84" rx="3" ry="3" style="stroke:#038048;stroke-width:1;"/><text fill="#000000" font-family="sans-serif" font-size="14" lengthAdjust="spacing" textLength="209.583" x="1195.14" y="259.5576">checkGameStatus(Game*) int</text><ellipse cx="1186.14" cy="272.5078" fill="#84BE84" rx="3" ry="3" style="stroke:#038048;stroke-width:1;"/><text fill="#000000" font-family="sans-serif" font-size="14" lengthAdjust="spacing" textLength="166.626" x="1195.14" y="275.8545">movePirate(Game*, int)</text><ellipse cx="1186.14" cy="288.8047" fill="#84BE84" rx="3" ry="3" style="stroke:#038048;stroke-width:1;"/><text fill="#000000" font-family="sans-serif" font-size="14" lengthAdjust="spacing" textLength="217.3623" x="1195.14" y="292.1514">gameInitStateMachine(Game*)</text><ellipse cx="1186.14" cy="305.1016" fill="#84BE84" rx="3" ry="3" style="stroke:#038048;stroke-width:1;"/><text fill="#000000" font-family="sans-serif" font-size="14" lengthAdjust="spacing" textLength="279.4805" x="1195.14" y="308.4482">gameHandleEvent(Game*, GameEvent)</text><ellipse cx="1186.14" cy="321.3984" fill="#84BE84" rx="3" ry="3" style="stroke:#038048;stroke-width:1;"/><text fill="#000000" font-family="sans-serif" font-size="14" lengthAdjust="spacing" textLength="191.8164" x="1195.14" y="324.7451">gameIsFinished(Game*) int</text><ellipse cx="1186.14" cy="337.6953" fill="#84BE84" rx="3" ry="3" style="stroke:#038048;stroke-width:1;"/><text fill="#000000" font-family="sans-serif" font-size="14" lengthAdjust="spacing" textLength="294.9297" x="1195.14" y="341.042">gameGetEventFromKey(char) GameEvent</text><ellipse cx="1186.14" cy="353.9922" fill="#84BE84" rx="3" ry="3" style="stroke:#038048;stroke-width:1;"/><text fill="#000000" font-family="sans-serif" font-size="14" lengthAdjust="spacing" textLength="297.6504" x="1195.14" y="357.3389">gameGetCurrentState(Game*) GameState</text><ellipse cx="1186.14" cy="370.2891" fill="#84BE84" rx="3" ry="3" style="stroke:#038048;stroke-width:1;"/><text fill="#000000" font-family="sans-serif" font-size="14" lengthAdjust="spacing" textLength="194.8105" x="1195.14" y="373.6357">getMapGame(Game*) Map*</text><ellipse cx="1186.14" cy="386.5859" fill="#84BE84" rx="3" ry="3" style="stroke:#038048;stroke-width:1;"/><text fill="#000000" font-family="sans-serif" font-size="14" lengthAdjust="spacing" textLength="222.8516" x="1195.14" y="389.9326">getPlayerGame(Game*) Player*</text><ellipse cx="1186.14" cy="402.8828" fill="#84BE84" rx="3" ry="3" style="stroke:#038048;stroke-width:1;"/><text fill="#000000" font-family="sans-serif" font-size="14" lengthAdjust="spacing" textLength="259.793" x="1195.14" y="406.2295">getTreasureGame(Game*) Treasure*</text><ellipse cx="1186.14" cy="419.1797" fill="#84BE84" rx="3" ry="3" style="stroke:#038048;stroke-width:1;"/><text fill="#000000" font-family="sans-serif" font-size="14" lengthAdjust="spacing" textLength="217.2598" x="1195.14" y="422.5264">getPirateGame(Game*) Pirate*</text><ellipse cx="1186.14" cy="435.4766" fill="#84BE84" rx="3" ry="3" style="stroke:#038048;stroke-width:1;"/><text fill="#000000" font-family="sans-serif" font-size="14" lengthAdjust="spacing" textLength="203.0068" x="1195.14" y="438.8232">getGridGame(Game*) char**</text><ellipse cx="1186.14" cy="451.7734" fill="#84BE84" rx="3" ry="3" style="stroke:#038048;stroke-width:1;"/><text fill="#000000" font-family="sans-serif" font-size="14" lengthAdjust="spacing" textLength="206.2676" x="1195.14" y="455.1201">getTrapGame(Game*) Trap**</text></g><!--class Map--><g class="entity" data-entity="Map" data-source-line="29" data-uid="ent0003" id="entity_Map"><rect fill="#F1F1F1" height="162.0781" rx="2.5" ry="2.5" style="stroke:#181818;stroke-width:0.5;" width="274.0693" x="7" y="580.17"/><ellipse cx="125.0122" cy="596.17" fill="#ADD1B2" rx="11" ry="11" style="stroke:#181818;stroke-width:1;"/><path d="M127.981,601.8106 Q127.4028,602.1075 126.7622,602.2481 Q126.1216,602.4044 125.4185,602.4044 Q122.9185,602.4044 121.5903,600.7638 Q120.2778,599.1075 120.2778,595.9825 Q120.2778,592.8575 121.5903,591.2013 Q122.9185,589.545 125.4185,589.545 Q126.1216,589.545 126.7622,589.7013 Q127.4185,589.8575 127.981,590.1544 L127.981,592.8731 Q127.356,592.295 126.7622,592.0294 Q126.1685,591.7481 125.5435,591.7481 Q124.1997,591.7481 123.5122,592.8263 Q122.8247,593.8888 122.8247,595.9825 Q122.8247,598.0763 123.5122,599.1544 Q124.1997,600.2169 125.5435,600.2169 Q126.1685,600.2169 126.7622,599.9513 Q127.356,599.67 127.981,599.0919 L127.981,601.8106 Z " fill="#000000"/><text fill="#000000" font-family="sans-serif" font-size="14" lengthAdjust="spacing" textLength="29.5449" x="145.5122" y="601.0167">Map</text><line style="stroke:#181818;stroke-width:0.5;" x1="8" x2="280.0693" y1="612.17" y2="612.17"/><rect fill="none" height="6" style="stroke:#C82930;stroke-width:1;" width="6" x="15" y="622.8184"/><text fill="#000000" font-family="sans-serif" font-size="14" lengthAdjust="spacing" textLength="76.7744" x="27" y="629.1651">char** grid</text><line style="stroke:#181818;stroke-width:0.5;" x1="8" x2="280.0693" y1="636.4669" y2="636.4669"/><ellipse cx="18" cy="650.1153" fill="#84BE84" rx="3" ry="3" style="stroke:#038048;stroke-width:1;"/><text fill="#000000" font-family="sans-serif" font-size="14" lengthAdjust="spacing" textLength="110.4004" x="27" y="653.462">newMap() Map*</text><ellipse cx="18" cy="666.4122" fill="#84BE84" rx="3" ry="3" style="stroke:#038048;stroke-width:1;"/><text fill="#000000" font-family="sans-serif" font-size="14" lengthAdjust="spacing" textLength="163.8916" x="27" y="669.7589">mapInitialisation(Map*)</text><ellipse cx="18" cy="682.7091" fill="#84BE84" rx="3" ry="3" style="stroke:#038048;stroke-width:1;"/><text fill="#000000" font-family="sans-serif" font-size="14" lengthAdjust="spacing" textLength="104.9248" x="27" y="686.0557">freeMap(Map*)</text><ellipse cx="18" cy="699.0059" fill="#84BE84" rx="3" ry="3" style="stroke:#038048;stroke-width:1;"/><text fill="#000000" font-family="sans-serif" font-size="14" lengthAdjust="spacing" textLength="178.7393" x="27" y="702.3526">getGridMap(Map*) char**</text><ellipse cx="18" cy="715.3028" fill="#84BE84" rx="3" ry="3" style="stroke:#038048;stroke-width:1;"/><text fill="#000000" font-family="sans-serif" font-size="14" lengthAdjust="spacing" textLength="248.0693" x="27" y="718.6495">setGridCellMap(Map*, int, int, char)</text><ellipse cx="18" cy="731.5997" fill="#84BE84" rx="3" ry="3" style="stroke:#038048;stroke-width:1;"/><text fill="#000000" font-family="sans-serif" font-size="14" lengthAdjust="spacing" textLength="245.2119" x="27" y="734.9464">getGridCellMap(Map*, int, int) char</text></g><!--class Player--><g class="entity" data-entity="Player" data-source-line="39" data-uid="ent0004" id="entity_Player"><rect fill="#F1F1F1" height="243.5625" rx="2.5" ry="2.5" style="stroke:#181818;stroke-width:0.5;" width="271.123" x="316.47" y="539.42"/><ellipse cx="425.9988" cy="555.42" fill="#ADD1B2" rx="11" ry="11" style="stroke:#181818;stroke-width:1;"/><path d="M428.9676,561.0606 Q428.3894,561.3575 427.7488,561.4981 Q427.1082,561.6544 426.4051,561.6544 Q423.9051,561.6544 422.5769,560.0138 Q421.2644,558.3575 421.2644,555.2325 Q421.2644,552.1075 422.5769,550.4513 Q423.9051,548.795 426.4051,548.795 Q427.1082,548.795 427.7488,548.9513 Q428.4051,549.1075 428.9676,549.4044 L428.9676,552.1231 Q428.3426,551.545 427.7488,551.2794 Q427.1551,550.9981 426.5301,550.9981 Q425.1863,550.9981 424.4988,552.0763 Q423.8113,553.1388 423.8113,555.2325 Q423.8113,557.3263 424.4988,558.4044 Q425.1863,559.4669 426.5301,559.4669 Q427.1551,559.4669 427.7488,559.2013 Q428.3426,558.92 428.9676,558.3419 L428.9676,561.0606 Z " fill="#000000"/><text fill="#000000" font-family="sans-serif" font-size="14" lengthAdjust="spacing" textLength="43.5654" x="446.4988" y="560.2667">Player</text><line style="stroke:#181818;stroke-width:0.5;" x1="317.47" x2="586.593" y1="571.42" y2="571.42"/><rect fill="none" height="6" style="stroke:#C82930;stroke-width:1;" width="6" x="324.47" y="582.0684"/><text fill="#000000" font-family="sans-serif" font-size="14" lengthAdjust="spacing" textLength="93.4404" x="336.47" y="588.4151">int position_x</text><rect fill="none" height="6" style="stroke:#C82930;stroke-width:1;" width="6" x="324.47" y="598.3653"/><text fill="#000000" font-family="sans-serif" font-size="14" lengthAdjust="spacing" textLength="93.4404" x="336.47" y="604.712">int position_y</text><rect fill="none" height="6" style="stroke:#C82930;stroke-width:1;" width="6" x="324.47" y="614.6622"/><text fill="#000000" font-family="sans-serif" font-size="14" lengthAdjust="spacing" textLength="67.0195" x="336.47" y="621.0089">int health</text><line style="stroke:#181818;stroke-width:0.5;" x1="317.47" x2="586.593" y1="628.3106" y2="628.3106"/><ellipse cx="327.47" cy="641.9591" fill="#84BE84" rx="3" ry="3" style="stroke:#038048;stroke-width:1;"/><text fill="#000000" font-family="sans-serif" font-size="14" lengthAdjust="spacing" textLength="138.4414" x="336.47" y="645.3057">newPlayer() Player*</text><ellipse cx="327.47" cy="658.2559" fill="#84BE84" rx="3" ry="3" style="stroke:#038048;stroke-width:1;"/><text fill="#000000" font-family="sans-serif" font-size="14" lengthAdjust="spacing" textLength="245.123" x="336.47" y="661.6026">playerInitialisation(Player*, int, int)</text><ellipse cx="327.47" cy="674.5528" fill="#84BE84" rx="3" ry="3" style="stroke:#038048;stroke-width:1;"/><text fill="#000000" font-family="sans-serif" font-size="14" lengthAdjust="spacing" textLength="132.9658" x="336.47" y="677.8995">freePlayer(Player*)</text><ellipse cx="327.47" cy="690.8497" fill="#84BE84" rx="3" ry="3" style="stroke:#038048;stroke-width:1;"/><text fill="#000000" font-family="sans-serif" font-size="14" lengthAdjust="spacing" textLength="184.6387" x="336.47" y="694.1964">getPosPlayerX(Player*) int</text><ellipse cx="327.47" cy="707.1466" fill="#84BE84" rx="3" ry="3" style="stroke:#038048;stroke-width:1;"/><text fill="#000000" font-family="sans-serif" font-size="14" lengthAdjust="spacing" textLength="183.5996" x="336.47" y="710.4932">getPosPlayerY(Player*) int</text><ellipse cx="327.47" cy="723.4434" fill="#84BE84" rx="3" ry="3" style="stroke:#038048;stroke-width:1;"/><text fill="#000000" font-family="sans-serif" font-size="14" lengthAdjust="spacing" textLength="187.4961" x="336.47" y="726.7901">setPosPlayerX(Player*, int)</text><ellipse cx="327.47" cy="739.7403" fill="#84BE84" rx="3" ry="3" style="stroke:#038048;stroke-width:1;"/><text fill="#000000" font-family="sans-serif" font-size="14" lengthAdjust="spacing" textLength="186.457" x="336.47" y="743.087">setPosPlayerY(Player*, int)</text><ellipse cx="327.47" cy="756.0372" fill="#84BE84" rx="3" ry="3" style="stroke:#038048;stroke-width:1;"/><text fill="#000000" font-family="sans-serif" font-size="14" lengthAdjust="spacing" textLength="196.7178" x="336.47" y="759.3839">getHealthPlayer(Player*) int</text><ellipse cx="327.47" cy="772.3341" fill="#84BE84" rx="3" ry="3" style="stroke:#038048;stroke-width:1;"/><text fill="#000000" font-family="sans-serif" font-size="14" lengthAdjust="spacing" textLength="199.5752" x="336.47" y="775.6807">setHealthPlayer(Player*, int)</text></g><!--class Treasure--><g class="entity" data-entity="Treasure" data-source-line="54" data-uid="ent0005" id="entity_Treasure"><rect fill="#F1F1F1" height="194.6719" rx="2.5" ry="2.5" style="stroke:#181818;stroke-width:0.5;" width="304.5576" x="622.76" y="563.87"/><ellipse cx="739.7707" cy="579.87" fill="#ADD1B2" rx="11" ry="11" style="stroke:#181818;stroke-width:1;"/><path d="M742.7395,585.5106 Q742.1614,585.8075 741.5207,585.9481 Q740.8801,586.1044 740.177,586.1044 Q737.677,586.1044 736.3489,584.4638 Q735.0364,582.8075 735.0364,579.6825 Q735.0364,576.5575 736.3489,574.9013 Q737.677,573.245 740.177,573.245 Q740.8801,573.245 741.5207,573.4013 Q742.177,573.5575 742.7395,573.8544 L742.7395,576.5731 Q742.1145,575.995 741.5207,575.7294 Q740.927,575.4481 740.302,575.4481 Q738.9582,575.4481 738.2707,576.5263 Q737.5832,577.5888 737.5832,579.6825 Q737.5832,581.7763 738.2707,582.8544 Q738.9582,583.9169 740.302,583.9169 Q740.927,583.9169 741.5207,583.6513 Q742.1145,583.37 742.7395,582.7919 L742.7395,585.5106 Z " fill="#000000"/><text fill="#000000" font-family="sans-serif" font-size="14" lengthAdjust="spacing" textLength="62.0361" x="760.2707" y="584.7167">Treasure</text><line style="stroke:#181818;stroke-width:0.5;" x1="623.76" x2="926.3176" y1="595.87" y2="595.87"/><rect fill="none" height="6" style="stroke:#C82930;stroke-width:1;" width="6" x="630.76" y="606.5184"/><text fill="#000000" font-family="sans-serif" font-size="14" lengthAdjust="spacing" textLength="93.4404" x="642.76" y="612.8651">int position_x</text><rect fill="none" height="6" style="stroke:#C82930;stroke-width:1;" width="6" x="630.76" y="622.8153"/><text fill="#000000" font-family="sans-serif" font-size="14" lengthAdjust="spacing" textLength="93.4404" x="642.76" y="629.162">int position_y</text><line style="stroke:#181818;stroke-width:0.5;" x1="623.76" x2="926.3176" y1="636.4638" y2="636.4638"/><ellipse cx="633.76" cy="650.1122" fill="#84BE84" rx="3" ry="3" style="stroke:#038048;stroke-width:1;"/><text fill="#000000" font-family="sans-serif" font-size="14" lengthAdjust="spacing" textLength="175.3828" x="642.76" y="653.4589">newTreasure() Treasure*</text><ellipse cx="633.76" cy="666.4091" fill="#84BE84" rx="3" ry="3" style="stroke:#038048;stroke-width:1;"/><text fill="#000000" font-family="sans-serif" font-size="14" lengthAdjust="spacing" textLength="278.5576" x="642.76" y="669.7557">treasureInitialisation(Treasure*, int, int)</text><ellipse cx="633.76" cy="682.7059" fill="#84BE84" rx="3" ry="3" style="stroke:#038048;stroke-width:1;"/><text fill="#000000" font-family="sans-serif" font-size="14" lengthAdjust="spacing" textLength="169.9072" x="642.76" y="686.0526">freeTreasure(Treasure*)</text><ellipse cx="633.76" cy="699.0028" fill="#84BE84" rx="3" ry="3" style="stroke:#038048;stroke-width:1;"/><text fill="#000000" font-family="sans-serif" font-size="14" lengthAdjust="spacing" textLength="221.5801" x="642.76" y="702.3495">getPosTreasureX(Treasure*) int</text><ellipse cx="633.76" cy="715.2997" fill="#84BE84" rx="3" ry="3" style="stroke:#038048;stroke-width:1;"/><text fill="#000000" font-family="sans-serif" font-size="14" lengthAdjust="spacing" textLength="220.541" x="642.76" y="718.6464">getPosTreasureY(Treasure*) int</text><ellipse cx="633.76" cy="731.5966" fill="#84BE84" rx="3" ry="3" style="stroke:#038048;stroke-width:1;"/><text fill="#000000" font-family="sans-serif" font-size="14" lengthAdjust="spacing" textLength="224.4375" x="642.76" y="734.9432">setPosTreasureX(Treasure*, int)</text><ellipse cx="633.76" cy="747.8934" fill="#84BE84" rx="3" ry="3" style="stroke:#038048;stroke-width:1;"/><text fill="#000000" font-family="sans-serif" font-size="14" lengthAdjust="spacing" textLength="223.3984" x="642.76" y="751.2401">setPosTreasureY(Treasure*, int)</text></g><!--class Pirate--><g class="entity" data-entity="Pirate" data-source-line="66" data-uid="ent0006" id="entity_Pirate"><rect fill="#F1F1F1" height="194.6719" rx="2.5" ry="2.5" style="stroke:#181818;stroke-width:0.5;" width="265.5313" x="962.27" y="563.87"/><ellipse cx="1070.4009" cy="579.87" fill="#ADD1B2" rx="11" ry="11" style="stroke:#181818;stroke-width:1;"/><path d="M1073.3696,585.5106 Q1072.7915,585.8075 1072.1509,585.9481 Q1071.5102,586.1044 1070.8071,586.1044 Q1068.3071,586.1044 1066.979,584.4638 Q1065.6665,582.8075 1065.6665,579.6825 Q1065.6665,576.5575 1066.979,574.9013 Q1068.3071,573.245 1070.8071,573.245 Q1071.5102,573.245 1072.1509,573.4013 Q1072.8071,573.5575 1073.3696,573.8544 L1073.3696,576.5731 Q1072.7446,575.995 1072.1509,575.7294 Q1071.5571,575.4481 1070.9321,575.4481 Q1069.5884,575.4481 1068.9009,576.5263 Q1068.2134,577.5888 1068.2134,579.6825 Q1068.2134,581.7763 1068.9009,582.8544 Q1069.5884,583.9169 1070.9321,583.9169 Q1071.5571,583.9169 1072.1509,583.6513 Q1072.7446,583.37 1073.3696,582.7919 L1073.3696,585.5106 Z " fill="#000000"/><text fill="#000000" font-family="sans-serif" font-size="14" lengthAdjust="spacing" textLength="40.7695" x="1090.9009" y="584.7167">Pirate</text><line style="stroke:#181818;stroke-width:0.5;" x1="963.27" x2="1226.8013" y1="595.87" y2="595.87"/><rect fill="none" height="6" style="stroke:#C82930;stroke-width:1;" width="6" x="970.27" y="606.5184"/><text fill="#000000" font-family="sans-serif" font-size="14" lengthAdjust="spacing" textLength="93.4404" x="982.27" y="612.8651">int position_x</text><rect fill="none" height="6" style="stroke:#C82930;stroke-width:1;" width="6" x="970.27" y="622.8153"/><text fill="#000000" font-family="sans-serif" font-size="14" lengthAdjust="spacing" textLength="93.4404" x="982.27" y="629.162">int position_y</text><line style="stroke:#181818;stroke-width:0.5;" x1="963.27" x2="1226.8013" y1="636.4638" y2="636.4638"/><ellipse cx="973.27" cy="650.1122" fill="#84BE84" rx="3" ry="3" style="stroke:#038048;stroke-width:1;"/><text fill="#000000" font-family="sans-serif" font-size="14" lengthAdjust="spacing" textLength="132.8496" x="982.27" y="653.4589">newPirate() Pirate*</text><ellipse cx="973.27" cy="666.4091" fill="#84BE84" rx="3" ry="3" style="stroke:#038048;stroke-width:1;"/><text fill="#000000" font-family="sans-serif" font-size="14" lengthAdjust="spacing" textLength="239.5313" x="982.27" y="669.7557">pirateInitialisation(Pirate*, int, int)</text><ellipse cx="973.27" cy="682.7059" fill="#84BE84" rx="3" ry="3" style="stroke:#038048;stroke-width:1;"/><text fill="#000000" font-family="sans-serif" font-size="14" lengthAdjust="spacing" textLength="127.374" x="982.27" y="686.0526">freePirate(Pirate*)</text><ellipse cx="973.27" cy="699.0028" fill="#84BE84" rx="3" ry="3" style="stroke:#038048;stroke-width:1;"/><text fill="#000000" font-family="sans-serif" font-size="14" lengthAdjust="spacing" textLength="179.0469" x="982.27" y="702.3495">getPosPirateX(Pirate*) int</text><ellipse cx="973.27" cy="715.2997" fill="#84BE84" rx="3" ry="3" style="stroke:#038048;stroke-width:1;"/><text fill="#000000" font-family="sans-serif" font-size="14" lengthAdjust="spacing" textLength="178.0078" x="982.27" y="718.6464">getPosPirateY(Pirate*) int</text><ellipse cx="973.27" cy="731.5966" fill="#84BE84" rx="3" ry="3" style="stroke:#038048;stroke-width:1;"/><text fill="#000000" font-family="sans-serif" font-size="14" lengthAdjust="spacing" textLength="181.9043" x="982.27" y="734.9432">setPosPirateX(Pirate*, int)</text><ellipse cx="973.27" cy="747.8934" fill="#84BE84" rx="3" ry="3" style="stroke:#038048;stroke-width:1;"/><text fill="#000000" font-family="sans-serif" font-size="14" lengthAdjust="spacing" textLength="180.8652" x="982.27" y="751.2401">setPosPirateY(Pirate*, int)</text></g><!--class Trap--><g class="entity" data-entity="Trap" data-source-line="78" data-uid="ent0007" id="entity_Trap"><rect fill="#F1F1F1" height="227.2656" rx="2.5" ry="2.5" style="stroke:#181818;stroke-width:0.5;" width="247.0947" x="1262.49" y="547.57"/><ellipse cx="1365.9006" cy="563.57" fill="#ADD1B2" rx="11" ry="11" style="stroke:#181818;stroke-width:1;"/><path d="M1368.8694,569.2106 Q1368.2913,569.5075 1367.6506,569.6481 Q1367.01,569.8044 1366.3069,569.8044 Q1363.8069,569.8044 1362.4788,568.1637 Q1361.1663,566.5075 1361.1663,563.3825 Q1361.1663,560.2575 1362.4788,558.6012 Q1363.8069,556.945 1366.3069,556.945 Q1367.01,556.945 1367.6506,557.1012 Q1368.3069,557.2575 1368.8694,557.5544 L1368.8694,560.2731 Q1368.2444,559.695 1367.6506,559.4294 Q1367.0569,559.1481 1366.4319,559.1481 Q1365.0881,559.1481 1364.4006,560.2262 Q1363.7131,561.2887 1363.7131,563.3825 Q1363.7131,565.4762 1364.4006,566.5544 Q1365.0881,567.6169 1366.4319,567.6169 Q1367.0569,567.6169 1367.6506,567.3512 Q1368.2444,567.07 1368.8694,566.4919 L1368.8694,569.2106 Z " fill="#000000"/><text fill="#000000" font-family="sans-serif" font-size="14" lengthAdjust="spacing" textLength="31.7734" x="1386.4006" y="568.4167">Trap</text><line style="stroke:#181818;stroke-width:0.5;" x1="1263.49" x2="1508.5847" y1="579.57" y2="579.57"/><rect fill="none" height="6" style="stroke:#C82930;stroke-width:1;" width="6" x="1270.49" y="590.2184"/><text fill="#000000" font-family="sans-serif" font-size="14" lengthAdjust="spacing" textLength="93.4404" x="1282.49" y="596.5651">int position_x</text><rect fill="none" height="6" style="stroke:#C82930;stroke-width:1;" width="6" x="1270.49" y="606.5153"/><text fill="#000000" font-family="sans-serif" font-size="14" lengthAdjust="spacing" textLength="93.4404" x="1282.49" y="612.862">int position_y</text><line style="stroke:#181818;stroke-width:0.5;" x1="1263.49" x2="1508.5847" y1="620.1637" y2="620.1637"/><ellipse cx="1273.49" cy="633.8122" fill="#84BE84" rx="3" ry="3" style="stroke:#038048;stroke-width:1;"/><text fill="#000000" font-family="sans-serif" font-size="14" lengthAdjust="spacing" textLength="114.8574" x="1282.49" y="637.1589">newTrap() Trap*</text><ellipse cx="1273.49" cy="650.1091" fill="#84BE84" rx="3" ry="3" style="stroke:#038048;stroke-width:1;"/><text fill="#000000" font-family="sans-serif" font-size="14" lengthAdjust="spacing" textLength="221.0947" x="1282.49" y="653.4557">TrapInitialisation(Trap*, int, int)</text><ellipse cx="1273.49" cy="666.4059" fill="#84BE84" rx="3" ry="3" style="stroke:#038048;stroke-width:1;"/><text fill="#000000" font-family="sans-serif" font-size="14" lengthAdjust="spacing" textLength="109.3818" x="1282.49" y="669.7526">freeTrap(Trap*)</text><ellipse cx="1273.49" cy="682.7028" fill="#84BE84" rx="3" ry="3" style="stroke:#038048;stroke-width:1;"/><text fill="#000000" font-family="sans-serif" font-size="14" lengthAdjust="spacing" textLength="161.0547" x="1282.49" y="686.0495">getPosTrapX(Trap*) int</text><ellipse cx="1273.49" cy="698.9997" fill="#84BE84" rx="3" ry="3" style="stroke:#038048;stroke-width:1;"/><text fill="#000000" font-family="sans-serif" font-size="14" lengthAdjust="spacing" textLength="160.0156" x="1282.49" y="702.3464">getPosTrapY(Trap*) int</text><ellipse cx="1273.49" cy="715.2966" fill="#84BE84" rx="3" ry="3" style="stroke:#038048;stroke-width:1;"/><text fill="#000000" font-family="sans-serif" font-size="14" lengthAdjust="spacing" textLength="163.9121" x="1282.49" y="718.6432">setPosTrapX(Trap*, int)</text><ellipse cx="1273.49" cy="731.5934" fill="#84BE84" rx="3" ry="3" style="stroke:#038048;stroke-width:1;"/><text fill="#000000" font-family="sans-serif" font-size="14" lengthAdjust="spacing" textLength="162.873" x="1282.49" y="734.9401">setPosTrapY(Trap*, int)</text><ellipse cx="1273.49" cy="747.8903" fill="#84BE84" rx="3" ry="3" style="stroke:#038048;stroke-width:1;"/><text fill="#000000" font-family="sans-serif" font-size="14" lengthAdjust="spacing" textLength="163.8848" x="1282.49" y="751.237">setNullPosTrapX(Trap*)</text><ellipse cx="1273.49" cy="764.1872" fill="#84BE84" rx="3" ry="3" style="stroke:#038048;stroke-width:1;"/><text fill="#000000" font-family="sans-serif" font-size="14" lengthAdjust="spacing" textLength="162.8457" x="1282.49" y="767.5339">setNullPosTrapY(Trap*)</text></g><!--class TransitionAction--><g class="entity" data-entity="TransitionAction" data-source-line="92" data-uid="ent0008" id="entity_TransitionAction"><rect fill="#F1F1F1" height="80.5938" rx="2.5" ry="2.5" style="stroke:#181818;stroke-width:0.5;" width="224.6865" x="1645.69" y="620.91"/><ellipse cx="1696.857" cy="636.91" fill="#ADD1B2" rx="11" ry="11" style="stroke:#181818;stroke-width:1;"/><path d="M1699.8257,642.5506 Q1699.2476,642.8475 1698.607,642.9881 Q1697.9664,643.1444 1697.2632,643.1444 Q1694.7632,643.1444 1693.4351,641.5038 Q1692.1226,639.8475 1692.1226,636.7225 Q1692.1226,633.5975 1693.4351,631.9413 Q1694.7632,630.285 1697.2632,630.285 Q1697.9664,630.285 1698.607,630.4413 Q1699.2632,630.5975 1699.8257,630.8944 L1699.8257,633.6131 Q1699.2007,633.035 1698.607,632.7694 Q1698.0132,632.4881 1697.3882,632.4881 Q1696.0445,632.4881 1695.357,633.5663 Q1694.6695,634.6288 1694.6695,636.7225 Q1694.6695,638.8163 1695.357,639.8944 Q1696.0445,640.9569 1697.3882,640.9569 Q1698.0132,640.9569 1698.607,640.6913 Q1699.2007,640.41 1699.8257,639.8319 L1699.8257,642.5506 Z " fill="#000000"/><text fill="#000000" font-family="sans-serif" font-size="14" lengthAdjust="spacing" textLength="113.8525" x="1717.357" y="641.7567">TransitionAction</text><line style="stroke:#181818;stroke-width:0.5;" x1="1646.69" x2="1869.3765" y1="652.91" y2="652.91"/><rect fill="none" height="6" style="stroke:#C82930;stroke-width:1;" width="6" x="1653.69" y="663.5584"/><text fill="#000000" font-family="sans-serif" font-size="14" lengthAdjust="spacing" textLength="133.3145" x="1665.69" y="669.9051">GameAction action</text><rect fill="none" height="6" style="stroke:#C82930;stroke-width:1;" width="6" x="1653.69" y="679.8553"/><text fill="#000000" font-family="sans-serif" font-size="14" lengthAdjust="spacing" textLength="198.6865" x="1665.69" y="686.202">GameState destinationState</text><line style="stroke:#181818;stroke-width:0.5;" x1="1646.69" x2="1869.3765" y1="693.5038" y2="693.5038"/></g><!--class GameState--><g class="entity" data-entity="GameState" data-source-line="97" data-uid="ent0009" id="entity_GameState"><rect fill="#F1F1F1" height="178.375" rx="2.5" ry="2.5" style="stroke:#181818;stroke-width:0.5;" width="198.6279" x="1520.72" y="892.58"/><ellipse cx="1576.4158" cy="908.58" fill="#EB937F" rx="11" ry="11" style="stroke:#181818;stroke-width:1;"/><path d="M1580.5252,914.58 L1572.8064,914.58 L1572.8064,902.1894 L1580.5252,902.1894 L1580.5252,904.3456 L1575.2596,904.3456 L1575.2596,907.0175 L1580.0252,907.0175 L1580.0252,909.1737 L1575.2596,909.1737 L1575.2596,912.4237 L1580.5252,912.4237 L1580.5252,914.58 Z " fill="#000000"/><text fill="#000000" font-family="sans-serif" font-size="14" lengthAdjust="spacing" textLength="78.7363" x="1596.9158" y="913.4267">GameState</text><line style="stroke:#181818;stroke-width:0.5;" x1="1521.72" x2="1718.3479" y1="924.58" y2="924.58"/><text fill="#000000" font-family="sans-serif" font-size="14" lengthAdjust="spacing" textLength="43.1689" x="1526.72" y="941.5751">S_INIT</text><text fill="#000000" font-family="sans-serif" font-size="14" lengthAdjust="spacing" textLength="174.2549" x="1526.72" y="957.872">S_ACQUISITION_CLAVIER</text><text fill="#000000" font-family="sans-serif" font-size="14" lengthAdjust="spacing" textLength="119.9023" x="1526.72" y="974.1689">S_DEPLACEMENT</text><text fill="#000000" font-family="sans-serif" font-size="14" lengthAdjust="spacing" textLength="186.6279" x="1526.72" y="990.4657">S_VERIFICATION_VICTOIRE</text><text fill="#000000" font-family="sans-serif" font-size="14" lengthAdjust="spacing" textLength="103.4072" x="1526.72" y="1006.7626">S_GAME_OVER</text><text fill="#000000" font-family="sans-serif" font-size="14" lengthAdjust="spacing" textLength="64.1689" x="1526.72" y="1023.0595">S_DEATH</text><text fill="#000000" font-family="sans-serif" font-size="14" lengthAdjust="spacing" textLength="72.9326" x="1526.72" y="1039.3564">S_FORGET</text><text fill="#000000" font-family="sans-serif" font-size="14" lengthAdjust="spacing" textLength="71.4902" x="1526.72" y="1055.6532">STATE_NB</text><line style="stroke:#181818;stroke-width:0.5;" x1="1521.72" x2="1718.3479" y1="1062.955" y2="1062.955"/></g><!--class GameEvent--><g class="entity" data-entity="GameEvent" data-source-line="108" data-uid="ent0010" id="entity_GameEvent"><rect fill="#F1F1F1" height="243.5625" rx="2.5" ry="2.5" style="stroke:#181818;stroke-width:0.5;" width="117.4854" x="1905.29" y="539.42"/><ellipse cx="1921.9551" cy="555.42" fill="#EB937F" rx="11" ry="11" style="stroke:#181818;stroke-width:1;"/><path d="M1926.0645,561.42 L1918.3457,561.42 L1918.3457,549.0294 L1926.0645,549.0294 L1926.0645,551.1856 L1920.7988,551.1856 L1920.7988,553.8575 L1925.5645,553.8575 L1925.5645,556.0138 L1920.7988,556.0138 L1920.7988,559.2638 L1926.0645,559.2638 L1926.0645,561.42 Z " fill="#000000"/><text fill="#000000" font-family="sans-serif" font-size="14" lengthAdjust="spacing" textLength="81.7852" x="1936.3251" y="560.2667">GameEvent</text><line style="stroke:#181818;stroke-width:0.5;" x1="1906.29" x2="2021.7754" y1="571.42" y2="571.42"/><text fill="#000000" font-family="sans-serif" font-size="14" lengthAdjust="spacing" textLength="61.1406" x="1911.29" y="588.4151">E_START</text><text fill="#000000" font-family="sans-serif" font-size="14" lengthAdjust="spacing" textLength="68.1133" x="1911.29" y="604.712">E_KEY_UP</text><text fill="#000000" font-family="sans-serif" font-size="14" lengthAdjust="spacing" textLength="95.5391" x="1911.29" y="621.0089">E_KEY_DOWN</text><text fill="#000000" font-family="sans-serif" font-size="14" lengthAdjust="spacing" textLength="82.6738" x="1911.29" y="637.3057">E_KEY_LEFT</text><text fill="#000000" font-family="sans-serif" font-size="14" lengthAdjust="spacing" textLength="93.208" x="1911.29" y="653.6026">E_KEY_RIGHT</text><text fill="#000000" font-family="sans-serif" font-size="14" lengthAdjust="spacing" textLength="83.3711" x="1911.29" y="669.8995">E_KEY_QUIT</text><text fill="#000000" font-family="sans-serif" font-size="14" lengthAdjust="spacing" textLength="98.0957" x="1911.29" y="686.1964">E_OTHER_KEY</text><text fill="#000000" font-family="sans-serif" font-size="14" lengthAdjust="spacing" textLength="105.4854" x="1911.29" y="702.4932">E_MOVE_DONE</text><text fill="#000000" font-family="sans-serif" font-size="14" lengthAdjust="spacing" textLength="77.1777" x="1911.29" y="718.7901">E_VICTORY</text><text fill="#000000" font-family="sans-serif" font-size="14" lengthAdjust="spacing" textLength="70.499" x="1911.29" y="735.087">E_DEFEAT</text><text fill="#000000" font-family="sans-serif" font-size="14" lengthAdjust="spacing" textLength="89.3594" x="1911.29" y="751.3839">E_CONTINUE</text><text fill="#000000" font-family="sans-serif" font-size="14" lengthAdjust="spacing" textLength="73.3701" x="1911.29" y="767.6807">EVENT_NB</text><line style="stroke:#181818;stroke-width:0.5;" x1="1906.29" x2="2021.7754" y1="774.9825" y2="774.9825"/></g><!--class GameAction--><g class="entity" data-entity="GameAction" data-source-line="123" data-uid="ent0011" id="entity_GameAction"><rect fill="#F1F1F1" height="243.5625" rx="2.5" ry="2.5" style="stroke:#181818;stroke-width:0.5;" width="138.3828" x="1888.84" y="859.99"/><ellipse cx="1913.1155" cy="875.99" fill="#EB937F" rx="11" ry="11" style="stroke:#181818;stroke-width:1;"/><path d="M1917.2249,881.99 L1909.5062,881.99 L1909.5062,869.5994 L1917.2249,869.5994 L1917.2249,871.7556 L1911.9593,871.7556 L1911.9593,874.4275 L1916.7249,874.4275 L1916.7249,876.5838 L1911.9593,876.5838 L1911.9593,879.8338 L1917.2249,879.8338 L1917.2249,881.99 Z " fill="#000000"/><text fill="#000000" font-family="sans-serif" font-size="14" lengthAdjust="spacing" textLength="85.7705" x="1929.1768" y="880.8367">GameAction</text><line style="stroke:#181818;stroke-width:0.5;" x1="1889.84" x2="2026.2228" y1="891.99" y2="891.99"/><text fill="#000000" font-family="sans-serif" font-size="14" lengthAdjust="spacing" textLength="46.5117" x="1894.84" y="908.9851">A_NOP</text><text fill="#000000" font-family="sans-serif" font-size="14" lengthAdjust="spacing" textLength="92.21" x="1894.84" y="925.282">A_INIT_GAME</text><text fill="#000000" font-family="sans-serif" font-size="14" lengthAdjust="spacing" textLength="83.7881" x="1894.84" y="941.5789">A_MOVE_UP</text><text fill="#000000" font-family="sans-serif" font-size="14" lengthAdjust="spacing" textLength="111.2139" x="1894.84" y="957.8757">A_MOVE_DOWN</text><text fill="#000000" font-family="sans-serif" font-size="14" lengthAdjust="spacing" textLength="98.3486" x="1894.84" y="974.1726">A_MOVE_LEFT</text><text fill="#000000" font-family="sans-serif" font-size="14" lengthAdjust="spacing" textLength="108.8828" x="1894.84" y="990.4695">A_MOVE_RIGHT</text><text fill="#000000" font-family="sans-serif" font-size="14" lengthAdjust="spacing" textLength="106.251" x="1894.84" y="1006.7664">A_PRINT_GAME</text><text fill="#000000" font-family="sans-serif" font-size="14" lengthAdjust="spacing" textLength="126.3828" x="1894.84" y="1023.0632">A_CHECK_STATUS</text><text fill="#000000" font-family="sans-serif" font-size="14" lengthAdjust="spacing" textLength="126.2324" x="1894.84" y="1039.3601">A_PRINT_VICTORY</text><text fill="#000000" font-family="sans-serif" font-size="14" lengthAdjust="spacing" textLength="119.5537" x="1894.84" y="1055.657">A_PRINT_DEFEAT</text><text fill="#000000" font-family="sans-serif" font-size="14" lengthAdjust="spacing" textLength="100.3994" x="1894.84" y="1071.9539">A_FREE_GAME</text><text fill="#000000" font-family="sans-serif" font-size="14" lengthAdjust="spacing" textLength="80.6025" x="1894.84" y="1088.2507">ACTION_NB</text><line style="stroke:#181818;stroke-width:0.5;" x1="1889.84" x2="2026.2228" y1="1095.5525" y2="1095.5525"/></g><!--reverse link Game to Map--><g class="link" data-entity-1="Game" data-entity-2="Map" data-source-line="139" data-uid="lnk12" id="link_Game_Map"><path codeLine="139" d="M1163.0703,271.6834 C937.3303,313.4534 585.07,395.13 299.03,539.42 C277.1,550.49 255.25,564.88 235.16,579.86" fill="none" id="Game-backto-Map" style="stroke:#181818;stroke-width:1;"/><polygon fill="#181818" points="1174.87,269.5,1168.2424,266.6585,1163.0703,271.6834,1169.6979,274.5249,1174.87,269.5" style="stroke:#181818;stroke-width:1;"/><text fill="#000000" font-family="sans-serif" font-size="13" lengthAdjust="spacing" textLength="8.271" x="1159.1424" y="267.55">1</text><text fill="#000000" font-family="sans-serif" font-size="13" lengthAdjust="spacing" textLength="8.271" x="234.9317" y="569.0197">1</text></g><!--reverse link Game to Player--><g class="link" data-entity-1="Game" data-entity-2="Player" data-source-line="140" data-uid="lnk13" id="link_Game_Player"><path codeLine="140" d="M1163.4822,302.5533 C1001.8022,355.3233 787.67,434.96 605.03,539.42 C599.31,542.7 593.56,546.18 587.84,549.81" fill="none" id="Game-backto-Player" style="stroke:#181818;stroke-width:1;"/><polygon fill="#181818" points="1174.89,298.83,1167.945,296.8891,1163.4822,302.5533,1170.4272,304.4942,1174.89,298.83" style="stroke:#181818;stroke-width:1;"/><text fill="#000000" font-family="sans-serif" font-size="13" lengthAdjust="spacing" textLength="8.271" x="1159.1631" y="297.934">1</text><text fill="#000000" font-family="sans-serif" font-size="13" lengthAdjust="spacing" textLength="8.271" x="595.4932" y="540.3787">1</text></g><!--reverse link Game to Treasure--><g class="link" data-entity-1="Game" data-entity-2="Treasure" data-source-line="141" data-uid="lnk14" id="link_Game_Treasure"><path codeLine="141" d="M1164.8528,387.1002 C1091.9228,437.2602 1019.69,487.2 945.03,539.42 C933.91,547.21 922.4,555.3 910.85,563.45" fill="none" id="Game-backto-Treasure" style="stroke:#181818;stroke-width:1;"/><polygon fill="#181818" points="1174.74,380.3,1167.5297,380.4044,1164.8528,387.1002,1172.0631,386.9959,1174.74,380.3" style="stroke:#181818;stroke-width:1;"/><text fill="#000000" font-family="sans-serif" font-size="13" lengthAdjust="spacing" textLength="8.271" x="1159.0078" y="382.3319">1</text><text fill="#000000" font-family="sans-serif" font-size="13" lengthAdjust="spacing" textLength="8.271" x="912.5398" y="552.792">1</text></g><!--reverse link Game to Pirate--><g class="link" data-entity-1="Game" data-entity-2="Pirate" data-source-line="142" data-uid="lnk15" id="link_Game_Pirate"><path codeLine="142" d="M1223.527,472.769 C1199.277,508.159 1182.18,533.08 1161.4,563.4" fill="none" id="Game-backto-Pirate" style="stroke:#181818;stroke-width:1;"/><polygon fill="#181818" points="1230.31,462.87,1223.6188,465.5585,1223.527,472.769,1230.2182,470.0805,1230.31,462.87" style="stroke:#181818;stroke-width:1;"/><text fill="#000000" font-family="sans-serif" font-size="13" lengthAdjust="spacing" textLength="8.271" x="1217.0735" y="482.6716">1</text><text fill="#000000" font-family="sans-serif" font-size="13" lengthAdjust="spacing" textLength="8.271" x="1157.9898" y="552.7384">1</text></g><!--reverse link Game to Trap--><g class="link" data-entity-1="Game" data-entity-2="Trap" data-source-line="143" data-uid="lnk16" id="link_Game_Trap"><path codeLine="143" d="M1386.03,474.87 C1386.03,504.15 1386.03,521.04 1386.03,547.31" fill="none" id="Game-backto-Trap" style="stroke:#181818;stroke-width:1;"/><polygon fill="#181818" points="1386.03,462.87,1382.03,468.87,1386.03,474.87,1390.03,468.87,1386.03,462.87" style="stroke:#181818;stroke-width:1;"/><text fill="#000000" font-family="sans-serif" font-size="13" lengthAdjust="spacing" textLength="8.271" x="1377.9031" y="482.6716">1</text><text fill="#000000" font-family="sans-serif" font-size="13" lengthAdjust="spacing" textLength="52.3491" x="1332.3751" y="536.6044">NBTRAP</text></g><!--reverse link Game to TransitionAction--><g class="link" data-entity-1="Game" data-entity-2="TransitionAction" data-source-line="144" data-uid="lnk17" id="link_Game_TransitionAction"><path codeLine="144" d="M1593.0091,471.8948 C1646.3891,532.8048 1690.42,583.05 1723.21,620.47" fill="none" id="Game-backto-TransitionAction" style="stroke:#181818;stroke-width:1;"/><polygon fill="#181818" points="1585.1,462.87,1586.0463,470.0187,1593.0091,471.8948,1592.0628,464.746,1585.1,462.87" style="stroke:#181818;stroke-width:1;"/></g><!--link Game to GameState--><g class="link" data-entity-1="Game" data-entity-2="GameState" data-source-line="146" data-uid="lnk18" id="link_Game_GameState"><path codeLine="146" d="M1498.15,462.73 C1508.74,488.27 1518.64,514.19 1527.03,539.42 C1566.71,658.68 1592.2548,795.9533 1606.4948,886.1933" fill="none" id="Game-to-GameState" style="stroke:#181818;stroke-width:1;"/><polygon fill="#181818" points="1607.43,892.12,1609.9783,882.6065,1606.6506,887.1811,1602.076,883.8535,1607.43,892.12" style="stroke:#181818;stroke-width:1;"/><text fill="#000000" font-family="sans-serif" font-size="13" lengthAdjust="spacing" textLength="29.7832" x="1589.03" y="665.7769">uses</text></g><!--link Game to GameEvent--><g class="link" data-entity-1="Game" data-entity-2="GameEvent" data-source-line="147" data-uid="lnk19" id="link_Game_GameEvent"><path codeLine="147" d="M1597.23,334.89 C1693.26,386.79 1803.93,456.79 1888.03,539.42 C1893.95,545.24 1895.8631,546.9299 1901.2431,553.5999" fill="none" id="Game-to-GameEvent" style="stroke:#181818;stroke-width:1;"/><polygon fill="#181818" points="1905.01,558.27,1902.473,548.7535,1901.8709,554.3782,1896.2462,553.7761,1905.01,558.27" style="stroke:#181818;stroke-width:1;"/><text fill="#000000" font-family="sans-serif" font-size="13" lengthAdjust="spacing" textLength="29.7832" x="1855.03" y="505.4869">uses</text></g><!--link Game to GameAction--><g class="link" data-entity-1="Game" data-entity-2="GameAction" data-source-line="148" data-uid="lnk20" id="link_Game_GameAction"><path codeLine="148" d="M1597.15,272.19 C1748.92,310.63 1943.22,387.73 2040.03,539.42 C2101.35,635.5 2068.2819,760.3649 2026.5619,854.4649" fill="none" id="Game-to-GameAction" style="stroke:#181818;stroke-width:1;"/><polygon fill="#181818" points="2024.13,859.95,2031.4345,853.3436,2026.1565,855.3791,2024.1211,850.1011,2024.13,859.95" style="stroke:#181818;stroke-width:1;"/><text fill="#000000" font-family="sans-serif" font-size="13" lengthAdjust="spacing" textLength="29.7832" x="2073.03" y="665.7769">uses</text></g><!--link TransitionAction to GameAction--><g class="link" data-entity-1="TransitionAction" data-entity-2="GameAction" data-source-line="149" data-uid="lnk21" id="link_TransitionAction_GameAction"><path codeLine="149" d="M1782.96,701.91 C1809.24,743.77 1848.6397,806.5285 1885.2297,864.8085" fill="none" id="TransitionAction-to-GameAction" style="stroke:#181818;stroke-width:1;"/><polygon fill="#181818" points="1888.42,869.89,1887.0222,860.1408,1885.7614,865.6554,1880.2468,864.3946,1888.42,869.89" style="stroke:#181818;stroke-width:1;"/><text fill="#000000" font-family="sans-serif" font-size="13" lengthAdjust="spacing" textLength="55.0278" x="1859.03" y="826.0569">contains</text></g><!--link TransitionAction to GameState--><g class="link" data-entity-1="TransitionAction" data-entity-2="GameState" data-source-line="150" data-uid="lnk22" id="link_TransitionAction_GameState"><path codeLine="150" d="M1740.84,701.91 C1720.32,749.28 1687.7746,824.3842 1660.7446,886.7942" fill="none" id="TransitionAction-to-GameState" style="stroke:#181818;stroke-width:1;"/><polygon fill="#181818" points="1658.36,892.3,1665.6074,885.631,1660.3472,887.7118,1658.2663,882.4516,1658.36,892.3" style="stroke:#181818;stroke-width:1;"/><text fill="#000000" font-family="sans-serif" font-size="13" lengthAdjust="spacing" textLength="55.0278" x="1690.03" y="826.0569">contains</text></g><!--SRC=[bLRVRvim47xFNu7wiZHh7lQwXqcKEWbg0uoGB55L8Oju3HeX4IPTgsd_- -pp3sp3fku5xFlkFjyTdssA2bFgpV6HUBz6dZTTulF4E-8p7oSLVYFDn3l3crkoXc1wQSZ4Q-K8_Ce6jynsXhVmupGjUpv6jrdg9q_SobTPjSp5AovDG-eM9XmfwzPxPkYih4jw87l9KTEoBK-rN_0dfvE69MwRylLnbVaPogFRfqUqGL76HopmOqr-yfN6rr3MX9iuTrYpM5oL57EACM3N7FpU4081dOdx9mtBoh0L1rByK2LSg4GyviJHu-c5Y3u8u8O3r-RQKEmI5uUoTfTQu7fV4VH2r88ta3eOEWwgkkCipS4vQS5xrfoEz-HjN1nmSzsH66w1qNf5f3yC-96MYS1eYCSr8H4X2HEK8f6u4eZfeKMZEA1D5eSGaCJdJRatKLxBf5l0pWsKDXdz7eqAK3BBLGXPH7dFZ4oAWa7ZhXYcSKSH7D62uCxQ89FIDYCbAg20L9M2uTFB1tm7WsBOJn1sHOYUYZhurZYVXExprvxbJLaE15VjGPOg2CRMrn6xsAbPuaOggW6IGZge6f8J5PQjHhGC3NJNG-bGRBSY7GeszX1f5r2VavN1FeHB0jrNfSHtTvRtKWMD7IMh4z3fgFOPwAccqav6NvLjQw1sRvLzD-11_yRXzdY0n6sJs8x_rIHvz5bRMLm7hk04FYGuGI4TJC61PQiHHt1WtVLGEXJR4vmTtDUBEatUhHKuO-1GuYO-wEd3tlgTDbWeW9Ocy7ahhQuMy7dd8DIDwNzx7MH1qQMgdDNwY5hDQezzG_zIjxoSOtZPL_-UqBQieHVYoc5qfBuSkqi8Q5Pv68KP3FpWwpfSXLaOHtdmu6z2b8Bz3YKFVe2MxEg7-GQbuImCV73SX44MXoa2PEulKHvlT9oVBM0qYzCvWc3v9s4b0pSd98Dovf1cCBf7ktoTwE5T_2tIamSqwvpISBxePgm4COcp1Kgv2MPBbXNZY13C8EbK87TenlA4OH17MHYjmKV-w5Y96jttyoXEuCtR1uN33DPP9zrOvYrdCd4vKvdxUPA6aS4IB51mptkHhLS6tgMjB3fvFv-b26c60BwDIF-3bv8AT417yFzvzUdAcqody6RtOzyeJlM-NHra0n7YZzIsYp_IAzYb0k9cLymZ0KsdNmnbVlOkb50R4J8PGkHtaL1lj_JSYbFTuhB-XwlAGdd-0G00]--></g></svg>