<?xml version="1.0" encoding="UTF-8" standalone="no"?>
<!DOCTYPE svg PUBLIC "-//W3C//DTD SVG 1.1//EN"
 "http://www.w3.org/Graphics/SVG/1.1/DTD/svg11.dtd">
<!-- Generated by graphviz version 2.43.0 (0)
 -->
<!-- Title: Header/Common.h Pages: 1 -->
<svg width="826pt" height="82pt"
 viewBox="0.00 0.00 825.50 82.00" xmlns="http://www.w3.org/2000/svg" xmlns:xlink="http://www.w3.org/1999/xlink">
<g id="graph0" class="graph" transform="scale(1 1) rotate(0) translate(4 78)">
<title>Header/Common.h</title>
<!-- Node1 -->
<g id="Node000001" class="node">
<title>Node1</title>
<g id="a_Node000001"><a xlink:title=" ">
<polygon fill="#999999" stroke="#666666" points="484.5,-74 376.5,-74 376.5,-55 484.5,-55 484.5,-74"/>
<text text-anchor="middle" x="430.5" y="-62" font-family="Helvetica,sans-Serif" font-size="10.00">Header/Common.h</text>
</a>
</g>
</g>
<!-- Node2 -->
<g id="Node000002" class="node">
<title>Node2</title>
<g id="a_Node000002"><a xlink:href="Common_8c.html" target="_top" xlink:title=" ">
<polygon fill="white" stroke="#666666" points="105,-19 0,-19 0,0 105,0 105,-19"/>
<text text-anchor="middle" x="52.5" y="-7" font-family="Helvetica,sans-Serif" font-size="10.00">Source/Common.c</text>
</a>
</g>
</g>
<!-- Node1&#45;&gt;Node2 -->
<g id="edge1_Node000001_Node000002" class="edge">
<title>Node1&#45;&gt;Node2</title>
<g id="a_edge1_Node000001_Node000002"><a xlink:title=" ">
<path fill="none" stroke="#63b8ff" d="M366.27,-54.49C292.64,-44.17 173.36,-27.45 105.04,-17.87"/>
<polygon fill="#63b8ff" stroke="#63b8ff" points="365.95,-57.98 376.34,-55.91 366.92,-51.05 365.95,-57.98"/>
</a>
</g>
</g>
<!-- Node3 -->
<g id="Node000003" class="node">
<title>Node3</title>
<g id="a_Node000003"><a xlink:href="Game_8c.html" target="_top" xlink:title=" ">
<polygon fill="white" stroke="#666666" points="213.5,-19 123.5,-19 123.5,0 213.5,0 213.5,-19"/>
<text text-anchor="middle" x="168.5" y="-7" font-family="Helvetica,sans-Serif" font-size="10.00">Source/Game.c</text>
</a>
</g>
</g>
<!-- Node1&#45;&gt;Node3 -->
<g id="edge2_Node000001_Node000003" class="edge">
<title>Node1&#45;&gt;Node3</title>
<g id="a_edge2_Node000001_Node000003"><a xlink:title=" ">
<path fill="none" stroke="#63b8ff" d="M378.3,-52.94C329.19,-43.01 256.57,-28.31 210.92,-19.08"/>
<polygon fill="#63b8ff" stroke="#63b8ff" points="377.91,-56.43 388.41,-54.98 379.3,-49.57 377.91,-56.43"/>
</a>
</g>
</g>
<!-- Node4 -->
<g id="Node000004" class="node">
<title>Node4</title>
<g id="a_Node000004"><a xlink:href="Map_8c.html" target="_top" xlink:title=" ">
<polygon fill="white" stroke="#666666" points="313.5,-19 231.5,-19 231.5,0 313.5,0 313.5,-19"/>
<text text-anchor="middle" x="272.5" y="-7" font-family="Helvetica,sans-Serif" font-size="10.00">Source/Map.c</text>
</a>
</g>
</g>
<!-- Node1&#45;&gt;Node4 -->
<g id="edge3_Node000001_Node000004" class="edge">
<title>Node1&#45;&gt;Node4</title>
<g id="a_edge3_Node000001_Node000004"><a xlink:title=" ">
<path fill="none" stroke="#63b8ff" d="M395.62,-51.8C366.13,-41.91 324.57,-27.97 298.08,-19.08"/>
<polygon fill="#63b8ff" stroke="#63b8ff" points="394.52,-55.12 405.11,-54.98 396.75,-48.49 394.52,-55.12"/>
</a>
</g>
</g>
<!-- Node5 -->
<g id="Node000005" class="node">
<title>Node5</title>
<g id="a_Node000005"><a xlink:href="Pirate_8c.html" target="_top" xlink:title=" ">
<polygon fill="white" stroke="#666666" points="421,-19 332,-19 332,0 421,0 421,-19"/>
<text text-anchor="middle" x="376.5" y="-7" font-family="Helvetica,sans-Serif" font-size="10.00">Source/Pirate.c</text>
</a>
</g>
</g>
<!-- Node1&#45;&gt;Node5 -->
<g id="edge4_Node000001_Node000005" class="edge">
<title>Node1&#45;&gt;Node5</title>
<g id="a_edge4_Node000001_Node000005"><a xlink:title=" ">
<path fill="none" stroke="#63b8ff" d="M414.22,-47.52C404.7,-38.18 393.06,-26.75 385.25,-19.09"/>
<polygon fill="#63b8ff" stroke="#63b8ff" points="411.99,-50.24 421.58,-54.75 416.9,-45.25 411.99,-50.24"/>
</a>
</g>
</g>
<!-- Node6 -->
<g id="Node000006" class="node">
<title>Node6</title>
<g id="a_Node000006"><a xlink:href="Player_8c.html" target="_top" xlink:title=" ">
<polygon fill="white" stroke="#666666" points="530,-19 439,-19 439,0 530,0 530,-19"/>
<text text-anchor="middle" x="484.5" y="-7" font-family="Helvetica,sans-Serif" font-size="10.00">Source/Player.c</text>
</a>
</g>
</g>
<!-- Node1&#45;&gt;Node6 -->
<g id="edge5_Node000001_Node000006" class="edge">
<title>Node1&#45;&gt;Node6</title>
<g id="a_edge5_Node000001_Node000006"><a xlink:title=" ">
<path fill="none" stroke="#63b8ff" d="M446.78,-47.52C456.3,-38.18 467.94,-26.75 475.75,-19.09"/>
<polygon fill="#63b8ff" stroke="#63b8ff" points="444.1,-45.25 439.42,-54.75 449.01,-50.24 444.1,-45.25"/>
</a>
</g>
</g>
<!-- Node7 -->
<g id="Node000007" class="node">
<title>Node7</title>
<g id="a_Node000007"><a xlink:href="Trap_8c.html" target="_top" xlink:title=" ">
<polygon fill="white" stroke="#666666" points="629,-19 548,-19 548,0 629,0 629,-19"/>
<text text-anchor="middle" x="588.5" y="-7" font-family="Helvetica,sans-Serif" font-size="10.00">Source/Trap.c</text>
</a>
</g>
</g>
<!-- Node1&#45;&gt;Node7 -->
<g id="edge6_Node000001_Node000007" class="edge">
<title>Node1&#45;&gt;Node7</title>
<g id="a_edge6_Node000001_Node000007"><a xlink:title=" ">
<path fill="none" stroke="#63b8ff" d="M465.38,-51.8C494.87,-41.91 536.43,-27.97 562.92,-19.08"/>
<polygon fill="#63b8ff" stroke="#63b8ff" points="464.25,-48.49 455.89,-54.98 466.48,-55.12 464.25,-48.49"/>
</a>
</g>
</g>
<!-- Node8 -->
<g id="Node000008" class="node">
<title>Node8</title>
<g id="a_Node000008"><a xlink:href="Treasure_8c.html" target="_top" xlink:title=" ">
<polygon fill="white" stroke="#666666" points="749.5,-19 647.5,-19 647.5,0 749.5,0 749.5,-19"/>
<text text-anchor="middle" x="698.5" y="-7" font-family="Helvetica,sans-Serif" font-size="10.00">Source/Treasure.c</text>
</a>
</g>
</g>
<!-- Node1&#45;&gt;Node8 -->
<g id="edge7_Node000001_Node000008" class="edge">
<title>Node1&#45;&gt;Node8</title>
<g id="a_edge7_Node000001_Node000008"><a xlink:title=" ">
<path fill="none" stroke="#63b8ff" d="M483.58,-53C533.82,-43.07 608.32,-28.33 655.1,-19.08"/>
<polygon fill="#63b8ff" stroke="#63b8ff" points="482.69,-49.61 473.56,-54.98 484.05,-56.48 482.69,-49.61"/>
</a>
</g>
</g>
<!-- Node9 -->
<g id="Node000009" class="node">
<title>Node9</title>
<g id="a_Node000009"><a xlink:href="main_8c.html" target="_top" xlink:title="Main program for the game, handling the game loop and events.">
<polygon fill="white" stroke="#666666" points="817.5,-19 767.5,-19 767.5,0 817.5,0 817.5,-19"/>
<text text-anchor="middle" x="792.5" y="-7" font-family="Helvetica,sans-Serif" font-size="10.00">main.c</text>
</a>
</g>
</g>
<!-- Node1&#45;&gt;Node9 -->
<g id="edge8_Node000001_Node000009" class="edge">
<title>Node1&#45;&gt;Node9</title>
<g id="a_edge8_Node000001_Node000009"><a xlink:title=" ">
<path fill="none" stroke="#63b8ff" d="M495.08,-56.86C561.48,-49.55 667.7,-36.45 758.5,-19 761.37,-18.45 764.36,-17.81 767.32,-17.12"/>
<polygon fill="#63b8ff" stroke="#63b8ff" points="494.34,-53.43 484.77,-57.99 495.1,-60.38 494.34,-53.43"/>
</a>
</g>
</g>
</g>
</svg>
