<svg xmlns="http://www.w3.org/2000/svg" xmlns:xlink="http://www.w3.org/1999/xlink" contentStyleType="text/css" data-diagram-type="CLASS" height="1175px" preserveAspectRatio="none" style="width:2109px;height:1175px;background:#FFFFFF;" version="1.1" viewBox="0 0 2109 1175" width="2109px" zoomAndPan="magnify"><defs/><g><!--class Game--><g class="entity" data-entity="Game" data-source-line="1" data-uid="ent0002" id="entity_Game"><rect fill="#F1F1F1" height="520.6094" rx="2.5" ry="2.5" style="stroke:#181818;stroke-width:0.5;" width="421.7871" x="1175.14" y="7"/><ellipse cx="1360.9442" cy="23" fill="#ADD1B2" rx="11" ry="11" style="stroke:#181818;stroke-width:1;"/><path d="M1363.9129,28.6406 Q1363.3348,28.9375 1362.6942,29.0781 Q1362.0536,29.2344 1361.3504,29.2344 Q1358.8504,29.2344 1357.5223,27.5938 Q1356.2098,25.9375 1356.2098,22.8125 Q1356.2098,19.6875 1357.5223,18.0313 Q1358.8504,16.375 1361.3504,16.375 Q1362.0536,16.375 1362.6942,16.5313 Q1363.3504,16.6875 1363.9129,16.9844 L1363.9129,19.7031 Q1363.2879,19.125 1362.6942,18.8594 Q1362.1004,18.5781 1361.4754,18.5781 Q1360.1317,18.5781 1359.4442,19.6563 Q1358.7567,20.7188 1358.7567,22.8125 Q1358.7567,24.9063 1359.4442,25.9844 Q1360.1317,27.0469 1361.4754,27.0469 Q1362.1004,27.0469 1362.6942,26.7813 Q1363.2879,26.5 1363.9129,25.9219 L1363.9129,28.6406 Z " fill="#000000"/><text fill="#000000" font-family="sans-serif" font-size="14" lengthAdjust="spacing" textLength="41.6787" x="1381.4442" y="27.8467">Game</text><line style="stroke:#181818;stroke-width:0.5;" x1="1176.14" x2="1595.9271" y1="39" y2="39"/><rect fill="none" height="6" style="stroke:#C82930;stroke-width:1;" width="6" x="1183.14" y="49.6484"/><text fill="#000000" font-family="sans-serif" font-size="14" lengthAdjust="spacing" textLength="72.0986" x="1195.14" y="55.9951">Map* map</text><rect fill="none" height="6" style="stroke:#C82930;stroke-width:1;" width="6" x="1183.14" y="65.9453"/><text fill="#000000" font-family="sans-serif" font-size="14" lengthAdjust="spacing" textLength="99.0254" x="1195.14" y="72.292">Player* player</text><rect fill="none" height="6" style="stroke:#C82930;stroke-width:1;" width="6" x="1183.14" y="82.2422"/><text fill="#000000" font-family="sans-serif" font-size="14" lengthAdjust="spacing" textLength="132.46" x="1195.14" y="88.5889">Treasure* treasure</text><rect fill="none" height="6" style="stroke:#C82930;stroke-width:1;" width="6" x="1183.14" y="98.5391"/><text fill="#000000" font-family="sans-serif" font-size="14" lengthAdjust="spacing" textLength="93.4336" x="1195.14" y="104.8857">Pirate* pirate</text><rect fill="none" height="6" style="stroke:#C82930;stroke-width:1;" width="6" x="1183.14" y="114.8359"/><text fill="#000000" font-family="sans-serif" font-size="14" lengthAdjust="spacing" textLength="139.2344" x="1195.14" y="121.1826">Trap* trap[NBTRAP]</text><rect fill="none" height="6" style="stroke:#C82930;stroke-width:1;" width="6" x="1183.14" y="131.1328"/><text fill="#000000" font-family="sans-serif" font-size="14" lengthAdjust="spacing" textLength="171.3018" x="1195.14" y="137.4795">GameState currentState</text><rect fill="none" height="6" style="stroke:#C82930;stroke-width:1;" width="6" x="1183.14" y="147.4297"/><text fill="#000000" font-family="sans-serif" font-size="14" lengthAdjust="spacing" textLength="120.791" x="1195.14" y="153.7764">int gameFinished</text><rect fill="none" height="6" style="stroke:#C82930;stroke-width:1;" width="6" x="1183.14" y="163.7266"/><text fill="#000000" font-family="sans-serif" font-size="14" lengthAdjust="spacing" textLength="395.7871" x="1195.14" y="170.0732">TransitionAction transitionMatrix[STATE_NB][EVENT_NB]</text><line style="stroke:#181818;stroke-width:0.5;" x1="1176.14" x2="1595.9271" y1="177.375" y2="177.375"/><ellipse cx="1186.14" cy="191.0234" fill="#84BE84" rx="3" ry="3" style="stroke:#038048;stroke-width:1;"/><text fill="#000000" font-family="sans-serif" font-size="14" lengthAdjust="spacing" textLength="134.668" x="1195.14" y="194.3701">newGame() Game*</text><ellipse cx="1186.14" cy="207.3203" fill="#84BE84" rx="3" ry="3" style="stroke:#038048;stroke-width:1;"/><text fill="#000000" font-family="sans-serif" font-size="14" lengthAdjust="spacing" textLength="184.6387" x="1195.14" y="210.667">gameInitialisation(Game*)</text><ellipse cx="1186.14" cy="223.6172" fill="#84BE84" rx="3" ry="3" style="stroke:#038048;stroke-width:1;"/><text fill="#000000" font-family="sans-serif" font-size="14" lengthAdjust="spacing" textLength="129.1924" x="1195.14" y="226.9639">freeGame(Game*)</text><ellipse cx="1186.14" cy="239.9141" fill="#84BE84" rx="3" ry="3" style="stroke:#038048;stroke-width:1;"/><text fill="#000000" font-family="sans-serif" font-size="14" lengthAdjust="spacing" textLength="131.7695" x="1195.14" y="243.2607">gamePrint(Game*)</text><ellipse cx="1186.14" cy="256.2109" fill="#84BE84" rx="3" ry="3" style="stroke:#038048;stroke-width:1;"/><text fill="#000000" font-family="sans-serif" font-size="14" lengthAdjust="spacing" textLength="209.583" x="1195.14" y="259.5576">checkGameStatus(Game*) int</text><ellipse cx="1186.14" cy="272.5078" fill="#84BE84" rx="3" ry="3" style="stroke:#038048;stroke-width:1;"/><text fill="#000000" font-family="sans-serif" font-size="14" lengthAdjust="spacing" textLength="166.626" x="1195.14" y="275.8545">movePirate(Game*, int)</text><ellipse cx="1186.14" cy="288.8047" fill="#84BE84" rx="3" ry="3" style="stroke:#038048;stroke-width:1;"/><text fill="#000000" font-family="sans-serif" font-size="14" lengthAdjust="spacing" textLength="217.3623" x="1195.14" y="292.1514">gameInitStateMachine(Game*)</text><ellipse cx="1186.14" cy="305.1016" fill="#84BE84" rx="3" ry="3" style="stroke:#038048;stroke-width:1;"/><text fill="#000000" font-family="sans-serif" font-size="14" lengthAdjust="spacing" textLength="279.4805" x="1195.14" y="308.4482">gameHandleEvent(Game*, GameEvent)</text><ellipse cx="1186.14" cy="321.3984" fill="#84BE84" rx="3" ry="3" style="stroke:#038048;stroke-width:1;"/><text fill="#000000" font-family="sans-serif" font-size="14" lengthAdjust="spacing" textLength="191.8164" x="1195.14" y="324.7451">gameIsFinished(Game*) int</text><ellipse cx="1186.14" cy="337.6953" fill="#84BE84" rx="3" ry="3" style="stroke:#038048;stroke-width:1;"/><text fill="#000000" font-family="sans-serif" font-size="14" lengthAdjust="spacing" textLength="178.0557" x="1195.14" y="341.042">startGame(Game* game)</text><ellipse cx="1186.14" cy="353.9922" fill="#84BE84" rx="3" ry="3" style="stroke:#038048;stroke-width:1;"/><text fill="#000000" font-family="sans-serif" font-size="14" lengthAdjust="spacing" textLength="228.4844" x="1195.14" y="357.3389">acquisitionClavier(Game* game)</text><ellipse cx="1186.14" cy="370.2891" fill="#84BE84" rx="3" ry="3" style="stroke:#038048;stroke-width:1;"/><text fill="#000000" font-family="sans-serif" font-size="14" lengthAdjust="spacing" textLength="195.5488" x="1195.14" y="373.6357">deplacement(Game* game)</text><ellipse cx="1186.14" cy="386.5859" fill="#84BE84" rx="3" ry="3" style="stroke:#038048;stroke-width:1;"/><text fill="#000000" font-family="sans-serif" font-size="14" lengthAdjust="spacing" textLength="171.3633" x="1195.14" y="389.9326">checkWin(Game* game)</text><ellipse cx="1186.14" cy="402.8828" fill="#84BE84" rx="3" ry="3" style="stroke:#038048;stroke-width:1;"/><text fill="#000000" font-family="sans-serif" font-size="14" lengthAdjust="spacing" textLength="294.9297" x="1195.14" y="406.2295">gameGetEventFromKey(char) GameEvent</text><ellipse cx="1186.14" cy="419.1797" fill="#84BE84" rx="3" ry="3" style="stroke:#038048;stroke-width:1;"/><text fill="#000000" font-family="sans-serif" font-size="14" lengthAdjust="spacing" textLength="297.6504" x="1195.14" y="422.5264">gameGetCurrentState(Game*) GameState</text><ellipse cx="1186.14" cy="435.4766" fill="#84BE84" rx="3" ry="3" style="stroke:#038048;stroke-width:1;"/><text fill="#000000" font-family="sans-serif" font-size="14" lengthAdjust="spacing" textLength="194.8105" x="1195.14" y="438.8232">getMapGame(Game*) Map*</text><ellipse cx="1186.14" cy="451.7734" fill="#84BE84" rx="3" ry="3" style="stroke:#038048;stroke-width:1;"/><text fill="#000000" font-family="sans-serif" font-size="14" lengthAdjust="spacing" textLength="222.8516" x="1195.14" y="455.1201">getPlayerGame(Game*) Player*</text><ellipse cx="1186.14" cy="468.0703" fill="#84BE84" rx="3" ry="3" style="stroke:#038048;stroke-width:1;"/><text fill="#000000" font-family="sans-serif" font-size="14" lengthAdjust="spacing" textLength="259.793" x="1195.14" y="471.417">getTreasureGame(Game*) Treasure*</text><ellipse cx="1186.14" cy="484.3672" fill="#84BE84" rx="3" ry="3" style="stroke:#038048;stroke-width:1;"/><text fill="#000000" font-family="sans-serif" font-size="14" lengthAdjust="spacing" textLength="217.2598" x="1195.14" y="487.7139">getPirateGame(Game*) Pirate*</text><ellipse cx="1186.14" cy="500.6641" fill="#84BE84" rx="3" ry="3" style="stroke:#038048;stroke-width:1;"/><text fill="#000000" font-family="sans-serif" font-size="14" lengthAdjust="spacing" textLength="203.0068" x="1195.14" y="504.0107">getGridGame(Game*) char**</text><ellipse cx="1186.14" cy="516.9609" fill="#84BE84" rx="3" ry="3" style="stroke:#038048;stroke-width:1;"/><text fill="#000000" font-family="sans-serif" font-size="14" lengthAdjust="spacing" textLength="206.2676" x="1195.14" y="520.3076">getTrapGame(Game*) Trap**</text></g><!--class Map--><g class="entity" data-entity="Map" data-source-line="33" data-uid="ent0003" id="entity_Map"><rect fill="#F1F1F1" height="162.0781" rx="2.5" ry="2.5" style="stroke:#181818;stroke-width:0.5;" width="274.0693" x="7" y="645.35"/><ellipse cx="125.0122" cy="661.35" fill="#ADD1B2" rx="11" ry="11" style="stroke:#181818;stroke-width:1;"/><path d="M127.981,666.9906 Q127.4028,667.2875 126.7622,667.4281 Q126.1216,667.5844 125.4185,667.5844 Q122.9185,667.5844 121.5903,665.9438 Q120.2778,664.2875 120.2778,661.1625 Q120.2778,658.0375 121.5903,656.3813 Q122.9185,654.725 125.4185,654.725 Q126.1216,654.725 126.7622,654.8813 Q127.4185,655.0375 127.981,655.3344 L127.981,658.0531 Q127.356,657.475 126.7622,657.2094 Q126.1685,656.9281 125.5435,656.9281 Q124.1997,656.9281 123.5122,658.0063 Q122.8247,659.0688 122.8247,661.1625 Q122.8247,663.2563 123.5122,664.3344 Q124.1997,665.3969 125.5435,665.3969 Q126.1685,665.3969 126.7622,665.1313 Q127.356,664.85 127.981,664.2719 L127.981,666.9906 Z " fill="#000000"/><text fill="#000000" font-family="sans-serif" font-size="14" lengthAdjust="spacing" textLength="29.5449" x="145.5122" y="666.1967">Map</text><line style="stroke:#181818;stroke-width:0.5;" x1="8" x2="280.0693" y1="677.35" y2="677.35"/><rect fill="none" height="6" style="stroke:#C82930;stroke-width:1;" width="6" x="15" y="687.9984"/><text fill="#000000" font-family="sans-serif" font-size="14" lengthAdjust="spacing" textLength="76.7744" x="27" y="694.3451">char** grid</text><line style="stroke:#181818;stroke-width:0.5;" x1="8" x2="280.0693" y1="701.6469" y2="701.6469"/><ellipse cx="18" cy="715.2953" fill="#84BE84" rx="3" ry="3" style="stroke:#038048;stroke-width:1;"/><text fill="#000000" font-family="sans-serif" font-size="14" lengthAdjust="spacing" textLength="110.4004" x="27" y="718.642">newMap() Map*</text><ellipse cx="18" cy="731.5922" fill="#84BE84" rx="3" ry="3" style="stroke:#038048;stroke-width:1;"/><text fill="#000000" font-family="sans-serif" font-size="14" lengthAdjust="spacing" textLength="163.8916" x="27" y="734.9389">mapInitialisation(Map*)</text><ellipse cx="18" cy="747.8891" fill="#84BE84" rx="3" ry="3" style="stroke:#038048;stroke-width:1;"/><text fill="#000000" font-family="sans-serif" font-size="14" lengthAdjust="spacing" textLength="104.9248" x="27" y="751.2357">freeMap(Map*)</text><ellipse cx="18" cy="764.1859" fill="#84BE84" rx="3" ry="3" style="stroke:#038048;stroke-width:1;"/><text fill="#000000" font-family="sans-serif" font-size="14" lengthAdjust="spacing" textLength="178.7393" x="27" y="767.5326">getGridMap(Map*) char**</text><ellipse cx="18" cy="780.4828" fill="#84BE84" rx="3" ry="3" style="stroke:#038048;stroke-width:1;"/><text fill="#000000" font-family="sans-serif" font-size="14" lengthAdjust="spacing" textLength="248.0693" x="27" y="783.8295">setGridCellMap(Map*, int, int, char)</text><ellipse cx="18" cy="796.7797" fill="#84BE84" rx="3" ry="3" style="stroke:#038048;stroke-width:1;"/><text fill="#000000" font-family="sans-serif" font-size="14" lengthAdjust="spacing" textLength="245.2119" x="27" y="800.1264">getGridCellMap(Map*, int, int) char</text></g><!--class Player--><g class="entity" data-entity="Player" data-source-line="43" data-uid="ent0004" id="entity_Player"><rect fill="#F1F1F1" height="243.5625" rx="2.5" ry="2.5" style="stroke:#181818;stroke-width:0.5;" width="271.123" x="316.47" y="604.6"/><ellipse cx="425.9988" cy="620.6" fill="#ADD1B2" rx="11" ry="11" style="stroke:#181818;stroke-width:1;"/><path d="M428.9676,626.2406 Q428.3894,626.5375 427.7488,626.6781 Q427.1082,626.8344 426.4051,626.8344 Q423.9051,626.8344 422.5769,625.1938 Q421.2644,623.5375 421.2644,620.4125 Q421.2644,617.2875 422.5769,615.6313 Q423.9051,613.975 426.4051,613.975 Q427.1082,613.975 427.7488,614.1313 Q428.4051,614.2875 428.9676,614.5844 L428.9676,617.3031 Q428.3426,616.725 427.7488,616.4594 Q427.1551,616.1781 426.5301,616.1781 Q425.1863,616.1781 424.4988,617.2563 Q423.8113,618.3188 423.8113,620.4125 Q423.8113,622.5063 424.4988,623.5844 Q425.1863,624.6469 426.5301,624.6469 Q427.1551,624.6469 427.7488,624.3813 Q428.3426,624.1 428.9676,623.5219 L428.9676,626.2406 Z " fill="#000000"/><text fill="#000000" font-family="sans-serif" font-size="14" lengthAdjust="spacing" textLength="43.5654" x="446.4988" y="625.4467">Player</text><line style="stroke:#181818;stroke-width:0.5;" x1="317.47" x2="586.593" y1="636.6" y2="636.6"/><rect fill="none" height="6" style="stroke:#C82930;stroke-width:1;" width="6" x="324.47" y="647.2484"/><text fill="#000000" font-family="sans-serif" font-size="14" lengthAdjust="spacing" textLength="93.4404" x="336.47" y="653.5951">int position_x</text><rect fill="none" height="6" style="stroke:#C82930;stroke-width:1;" width="6" x="324.47" y="663.5453"/><text fill="#000000" font-family="sans-serif" font-size="14" lengthAdjust="spacing" textLength="93.4404" x="336.47" y="669.892">int position_y</text><rect fill="none" height="6" style="stroke:#C82930;stroke-width:1;" width="6" x="324.47" y="679.8422"/><text fill="#000000" font-family="sans-serif" font-size="14" lengthAdjust="spacing" textLength="67.0195" x="336.47" y="686.1889">int health</text><line style="stroke:#181818;stroke-width:0.5;" x1="317.47" x2="586.593" y1="693.4906" y2="693.4906"/><ellipse cx="327.47" cy="707.1391" fill="#84BE84" rx="3" ry="3" style="stroke:#038048;stroke-width:1;"/><text fill="#000000" font-family="sans-serif" font-size="14" lengthAdjust="spacing" textLength="138.4414" x="336.47" y="710.4857">newPlayer() Player*</text><ellipse cx="327.47" cy="723.4359" fill="#84BE84" rx="3" ry="3" style="stroke:#038048;stroke-width:1;"/><text fill="#000000" font-family="sans-serif" font-size="14" lengthAdjust="spacing" textLength="245.123" x="336.47" y="726.7826">playerInitialisation(Player*, int, int)</text><ellipse cx="327.47" cy="739.7328" fill="#84BE84" rx="3" ry="3" style="stroke:#038048;stroke-width:1;"/><text fill="#000000" font-family="sans-serif" font-size="14" lengthAdjust="spacing" textLength="132.9658" x="336.47" y="743.0795">freePlayer(Player*)</text><ellipse cx="327.47" cy="756.0297" fill="#84BE84" rx="3" ry="3" style="stroke:#038048;stroke-width:1;"/><text fill="#000000" font-family="sans-serif" font-size="14" lengthAdjust="spacing" textLength="184.6387" x="336.47" y="759.3764">getPosPlayerX(Player*) int</text><ellipse cx="327.47" cy="772.3266" fill="#84BE84" rx="3" ry="3" style="stroke:#038048;stroke-width:1;"/><text fill="#000000" font-family="sans-serif" font-size="14" lengthAdjust="spacing" textLength="183.5996" x="336.47" y="775.6732">getPosPlayerY(Player*) int</text><ellipse cx="327.47" cy="788.6234" fill="#84BE84" rx="3" ry="3" style="stroke:#038048;stroke-width:1;"/><text fill="#000000" font-family="sans-serif" font-size="14" lengthAdjust="spacing" textLength="187.4961" x="336.47" y="791.9701">setPosPlayerX(Player*, int)</text><ellipse cx="327.47" cy="804.9203" fill="#84BE84" rx="3" ry="3" style="stroke:#038048;stroke-width:1;"/><text fill="#000000" font-family="sans-serif" font-size="14" lengthAdjust="spacing" textLength="186.457" x="336.47" y="808.267">setPosPlayerY(Player*, int)</text><ellipse cx="327.47" cy="821.2172" fill="#84BE84" rx="3" ry="3" style="stroke:#038048;stroke-width:1;"/><text fill="#000000" font-family="sans-serif" font-size="14" lengthAdjust="spacing" textLength="196.7178" x="336.47" y="824.5639">getHealthPlayer(Player*) int</text><ellipse cx="327.47" cy="837.5141" fill="#84BE84" rx="3" ry="3" style="stroke:#038048;stroke-width:1;"/><text fill="#000000" font-family="sans-serif" font-size="14" lengthAdjust="spacing" textLength="199.5752" x="336.47" y="840.8607">setHealthPlayer(Player*, int)</text></g><!--class Treasure--><g class="entity" data-entity="Treasure" data-source-line="58" data-uid="ent0005" id="entity_Treasure"><rect fill="#F1F1F1" height="194.6719" rx="2.5" ry="2.5" style="stroke:#181818;stroke-width:0.5;" width="304.5576" x="622.76" y="629.05"/><ellipse cx="739.7707" cy="645.05" fill="#ADD1B2" rx="11" ry="11" style="stroke:#181818;stroke-width:1;"/><path d="M742.7395,650.6906 Q742.1614,650.9875 741.5207,651.1281 Q740.8801,651.2844 740.177,651.2844 Q737.677,651.2844 736.3489,649.6438 Q735.0364,647.9875 735.0364,644.8625 Q735.0364,641.7375 736.3489,640.0813 Q737.677,638.425 740.177,638.425 Q740.8801,638.425 741.5207,638.5813 Q742.177,638.7375 742.7395,639.0344 L742.7395,641.7531 Q742.1145,641.175 741.5207,640.9094 Q740.927,640.6281 740.302,640.6281 Q738.9582,640.6281 738.2707,641.7063 Q737.5832,642.7688 737.5832,644.8625 Q737.5832,646.9563 738.2707,648.0344 Q738.9582,649.0969 740.302,649.0969 Q740.927,649.0969 741.5207,648.8313 Q742.1145,648.55 742.7395,647.9719 L742.7395,650.6906 Z " fill="#000000"/><text fill="#000000" font-family="sans-serif" font-size="14" lengthAdjust="spacing" textLength="62.0361" x="760.2707" y="649.8967">Treasure</text><line style="stroke:#181818;stroke-width:0.5;" x1="623.76" x2="926.3176" y1="661.05" y2="661.05"/><rect fill="none" height="6" style="stroke:#C82930;stroke-width:1;" width="6" x="630.76" y="671.6984"/><text fill="#000000" font-family="sans-serif" font-size="14" lengthAdjust="spacing" textLength="93.4404" x="642.76" y="678.0451">int position_x</text><rect fill="none" height="6" style="stroke:#C82930;stroke-width:1;" width="6" x="630.76" y="687.9953"/><text fill="#000000" font-family="sans-serif" font-size="14" lengthAdjust="spacing" textLength="93.4404" x="642.76" y="694.342">int position_y</text><line style="stroke:#181818;stroke-width:0.5;" x1="623.76" x2="926.3176" y1="701.6438" y2="701.6438"/><ellipse cx="633.76" cy="715.2922" fill="#84BE84" rx="3" ry="3" style="stroke:#038048;stroke-width:1;"/><text fill="#000000" font-family="sans-serif" font-size="14" lengthAdjust="spacing" textLength="175.3828" x="642.76" y="718.6389">newTreasure() Treasure*</text><ellipse cx="633.76" cy="731.5891" fill="#84BE84" rx="3" ry="3" style="stroke:#038048;stroke-width:1;"/><text fill="#000000" font-family="sans-serif" font-size="14" lengthAdjust="spacing" textLength="278.5576" x="642.76" y="734.9357">treasureInitialisation(Treasure*, int, int)</text><ellipse cx="633.76" cy="747.8859" fill="#84BE84" rx="3" ry="3" style="stroke:#038048;stroke-width:1;"/><text fill="#000000" font-family="sans-serif" font-size="14" lengthAdjust="spacing" textLength="169.9072" x="642.76" y="751.2326">freeTreasure(Treasure*)</text><ellipse cx="633.76" cy="764.1828" fill="#84BE84" rx="3" ry="3" style="stroke:#038048;stroke-width:1;"/><text fill="#000000" font-family="sans-serif" font-size="14" lengthAdjust="spacing" textLength="221.5801" x="642.76" y="767.5295">getPosTreasureX(Treasure*) int</text><ellipse cx="633.76" cy="780.4797" fill="#84BE84" rx="3" ry="3" style="stroke:#038048;stroke-width:1;"/><text fill="#000000" font-family="sans-serif" font-size="14" lengthAdjust="spacing" textLength="220.541" x="642.76" y="783.8264">getPosTreasureY(Treasure*) int</text><ellipse cx="633.76" cy="796.7766" fill="#84BE84" rx="3" ry="3" style="stroke:#038048;stroke-width:1;"/><text fill="#000000" font-family="sans-serif" font-size="14" lengthAdjust="spacing" textLength="224.4375" x="642.76" y="800.1232">setPosTreasureX(Treasure*, int)</text><ellipse cx="633.76" cy="813.0734" fill="#84BE84" rx="3" ry="3" style="stroke:#038048;stroke-width:1;"/><text fill="#000000" font-family="sans-serif" font-size="14" lengthAdjust="spacing" textLength="223.3984" x="642.76" y="816.4201">setPosTreasureY(Treasure*, int)</text></g><!--class Pirate--><g class="entity" data-entity="Pirate" data-source-line="70" data-uid="ent0006" id="entity_Pirate"><rect fill="#F1F1F1" height="194.6719" rx="2.5" ry="2.5" style="stroke:#181818;stroke-width:0.5;" width="265.5313" x="962.27" y="629.05"/><ellipse cx="1070.4009" cy="645.05" fill="#ADD1B2" rx="11" ry="11" style="stroke:#181818;stroke-width:1;"/><path d="M1073.3696,650.6906 Q1072.7915,650.9875 1072.1509,651.1281 Q1071.5102,651.2844 1070.8071,651.2844 Q1068.3071,651.2844 1066.979,649.6438 Q1065.6665,647.9875 1065.6665,644.8625 Q1065.6665,641.7375 1066.979,640.0813 Q1068.3071,638.425 1070.8071,638.425 Q1071.5102,638.425 1072.1509,638.5813 Q1072.8071,638.7375 1073.3696,639.0344 L1073.3696,641.7531 Q1072.7446,641.175 1072.1509,640.9094 Q1071.5571,640.6281 1070.9321,640.6281 Q1069.5884,640.6281 1068.9009,641.7063 Q1068.2134,642.7688 1068.2134,644.8625 Q1068.2134,646.9563 1068.9009,648.0344 Q1069.5884,649.0969 1070.9321,649.0969 Q1071.5571,649.0969 1072.1509,648.8313 Q1072.7446,648.55 1073.3696,647.9719 L1073.3696,650.6906 Z " fill="#000000"/><text fill="#000000" font-family="sans-serif" font-size="14" lengthAdjust="spacing" textLength="40.7695" x="1090.9009" y="649.8967">Pirate</text><line style="stroke:#181818;stroke-width:0.5;" x1="963.27" x2="1226.8013" y1="661.05" y2="661.05"/><rect fill="none" height="6" style="stroke:#C82930;stroke-width:1;" width="6" x="970.27" y="671.6984"/><text fill="#000000" font-family="sans-serif" font-size="14" lengthAdjust="spacing" textLength="93.4404" x="982.27" y="678.0451">int position_x</text><rect fill="none" height="6" style="stroke:#C82930;stroke-width:1;" width="6" x="970.27" y="687.9953"/><text fill="#000000" font-family="sans-serif" font-size="14" lengthAdjust="spacing" textLength="93.4404" x="982.27" y="694.342">int position_y</text><line style="stroke:#181818;stroke-width:0.5;" x1="963.27" x2="1226.8013" y1="701.6438" y2="701.6438"/><ellipse cx="973.27" cy="715.2922" fill="#84BE84" rx="3" ry="3" style="stroke:#038048;stroke-width:1;"/><text fill="#000000" font-family="sans-serif" font-size="14" lengthAdjust="spacing" textLength="132.8496" x="982.27" y="718.6389">newPirate() Pirate*</text><ellipse cx="973.27" cy="731.5891" fill="#84BE84" rx="3" ry="3" style="stroke:#038048;stroke-width:1;"/><text fill="#000000" font-family="sans-serif" font-size="14" lengthAdjust="spacing" textLength="239.5313" x="982.27" y="734.9357">pirateInitialisation(Pirate*, int, int)</text><ellipse cx="973.27" cy="747.8859" fill="#84BE84" rx="3" ry="3" style="stroke:#038048;stroke-width:1;"/><text fill="#000000" font-family="sans-serif" font-size="14" lengthAdjust="spacing" textLength="127.374" x="982.27" y="751.2326">freePirate(Pirate*)</text><ellipse cx="973.27" cy="764.1828" fill="#84BE84" rx="3" ry="3" style="stroke:#038048;stroke-width:1;"/><text fill="#000000" font-family="sans-serif" font-size="14" lengthAdjust="spacing" textLength="179.0469" x="982.27" y="767.5295">getPosPirateX(Pirate*) int</text><ellipse cx="973.27" cy="780.4797" fill="#84BE84" rx="3" ry="3" style="stroke:#038048;stroke-width:1;"/><text fill="#000000" font-family="sans-serif" font-size="14" lengthAdjust="spacing" textLength="178.0078" x="982.27" y="783.8264">getPosPirateY(Pirate*) int</text><ellipse cx="973.27" cy="796.7766" fill="#84BE84" rx="3" ry="3" style="stroke:#038048;stroke-width:1;"/><text fill="#000000" font-family="sans-serif" font-size="14" lengthAdjust="spacing" textLength="181.9043" x="982.27" y="800.1232">setPosPirateX(Pirate*, int)</text><ellipse cx="973.27" cy="813.0734" fill="#84BE84" rx="3" ry="3" style="stroke:#038048;stroke-width:1;"/><text fill="#000000" font-family="sans-serif" font-size="14" lengthAdjust="spacing" textLength="180.8652" x="982.27" y="816.4201">setPosPirateY(Pirate*, int)</text></g><!--class Trap--><g class="entity" data-entity="Trap" data-source-line="82" data-uid="ent0007" id="entity_Trap"><rect fill="#F1F1F1" height="227.2656" rx="2.5" ry="2.5" style="stroke:#181818;stroke-width:0.5;" width="247.0947" x="1262.49" y="612.75"/><ellipse cx="1365.9006" cy="628.75" fill="#ADD1B2" rx="11" ry="11" style="stroke:#181818;stroke-width:1;"/><path d="M1368.8694,634.3906 Q1368.2913,634.6875 1367.6506,634.8281 Q1367.01,634.9844 1366.3069,634.9844 Q1363.8069,634.9844 1362.4788,633.3438 Q1361.1663,631.6875 1361.1663,628.5625 Q1361.1663,625.4375 1362.4788,623.7813 Q1363.8069,622.125 1366.3069,622.125 Q1367.01,622.125 1367.6506,622.2813 Q1368.3069,622.4375 1368.8694,622.7344 L1368.8694,625.4531 Q1368.2444,624.875 1367.6506,624.6094 Q1367.0569,624.3281 1366.4319,624.3281 Q1365.0881,624.3281 1364.4006,625.4063 Q1363.7131,626.4688 1363.7131,628.5625 Q1363.7131,630.6563 1364.4006,631.7344 Q1365.0881,632.7969 1366.4319,632.7969 Q1367.0569,632.7969 1367.6506,632.5313 Q1368.2444,632.25 1368.8694,631.6719 L1368.8694,634.3906 Z " fill="#000000"/><text fill="#000000" font-family="sans-serif" font-size="14" lengthAdjust="spacing" textLength="31.7734" x="1386.4006" y="633.5967">Trap</text><line style="stroke:#181818;stroke-width:0.5;" x1="1263.49" x2="1508.5847" y1="644.75" y2="644.75"/><rect fill="none" height="6" style="stroke:#C82930;stroke-width:1;" width="6" x="1270.49" y="655.3984"/><text fill="#000000" font-family="sans-serif" font-size="14" lengthAdjust="spacing" textLength="93.4404" x="1282.49" y="661.7451">int position_x</text><rect fill="none" height="6" style="stroke:#C82930;stroke-width:1;" width="6" x="1270.49" y="671.6953"/><text fill="#000000" font-family="sans-serif" font-size="14" lengthAdjust="spacing" textLength="93.4404" x="1282.49" y="678.042">int position_y</text><line style="stroke:#181818;stroke-width:0.5;" x1="1263.49" x2="1508.5847" y1="685.3438" y2="685.3438"/><ellipse cx="1273.49" cy="698.9922" fill="#84BE84" rx="3" ry="3" style="stroke:#038048;stroke-width:1;"/><text fill="#000000" font-family="sans-serif" font-size="14" lengthAdjust="spacing" textLength="114.8574" x="1282.49" y="702.3389">newTrap() Trap*</text><ellipse cx="1273.49" cy="715.2891" fill="#84BE84" rx="3" ry="3" style="stroke:#038048;stroke-width:1;"/><text fill="#000000" font-family="sans-serif" font-size="14" lengthAdjust="spacing" textLength="221.0947" x="1282.49" y="718.6357">TrapInitialisation(Trap*, int, int)</text><ellipse cx="1273.49" cy="731.5859" fill="#84BE84" rx="3" ry="3" style="stroke:#038048;stroke-width:1;"/><text fill="#000000" font-family="sans-serif" font-size="14" lengthAdjust="spacing" textLength="109.3818" x="1282.49" y="734.9326">freeTrap(Trap*)</text><ellipse cx="1273.49" cy="747.8828" fill="#84BE84" rx="3" ry="3" style="stroke:#038048;stroke-width:1;"/><text fill="#000000" font-family="sans-serif" font-size="14" lengthAdjust="spacing" textLength="161.0547" x="1282.49" y="751.2295">getPosTrapX(Trap*) int</text><ellipse cx="1273.49" cy="764.1797" fill="#84BE84" rx="3" ry="3" style="stroke:#038048;stroke-width:1;"/><text fill="#000000" font-family="sans-serif" font-size="14" lengthAdjust="spacing" textLength="160.0156" x="1282.49" y="767.5264">getPosTrapY(Trap*) int</text><ellipse cx="1273.49" cy="780.4766" fill="#84BE84" rx="3" ry="3" style="stroke:#038048;stroke-width:1;"/><text fill="#000000" font-family="sans-serif" font-size="14" lengthAdjust="spacing" textLength="163.9121" x="1282.49" y="783.8232">setPosTrapX(Trap*, int)</text><ellipse cx="1273.49" cy="796.7734" fill="#84BE84" rx="3" ry="3" style="stroke:#038048;stroke-width:1;"/><text fill="#000000" font-family="sans-serif" font-size="14" lengthAdjust="spacing" textLength="162.873" x="1282.49" y="800.1201">setPosTrapY(Trap*, int)</text><ellipse cx="1273.49" cy="813.0703" fill="#84BE84" rx="3" ry="3" style="stroke:#038048;stroke-width:1;"/><text fill="#000000" font-family="sans-serif" font-size="14" lengthAdjust="spacing" textLength="163.8848" x="1282.49" y="816.417">setNullPosTrapX(Trap*)</text><ellipse cx="1273.49" cy="829.3672" fill="#84BE84" rx="3" ry="3" style="stroke:#038048;stroke-width:1;"/><text fill="#000000" font-family="sans-serif" font-size="14" lengthAdjust="spacing" textLength="162.8457" x="1282.49" y="832.7139">setNullPosTrapY(Trap*)</text></g><!--class TransitionAction--><g class="entity" data-entity="TransitionAction" data-source-line="96" data-uid="ent0008" id="entity_TransitionAction"><rect fill="#F1F1F1" height="80.5938" rx="2.5" ry="2.5" style="stroke:#181818;stroke-width:0.5;" width="224.6865" x="1645.69" y="686.09"/><ellipse cx="1696.857" cy="702.09" fill="#ADD1B2" rx="11" ry="11" style="stroke:#181818;stroke-width:1;"/><path d="M1699.8257,707.7306 Q1699.2476,708.0275 1698.607,708.1681 Q1697.9664,708.3244 1697.2632,708.3244 Q1694.7632,708.3244 1693.4351,706.6838 Q1692.1226,705.0275 1692.1226,701.9025 Q1692.1226,698.7775 1693.4351,697.1213 Q1694.7632,695.465 1697.2632,695.465 Q1697.9664,695.465 1698.607,695.6213 Q1699.2632,695.7775 1699.8257,696.0744 L1699.8257,698.7931 Q1699.2007,698.215 1698.607,697.9494 Q1698.0132,697.6681 1697.3882,697.6681 Q1696.0445,697.6681 1695.357,698.7463 Q1694.6695,699.8088 1694.6695,701.9025 Q1694.6695,703.9963 1695.357,705.0744 Q1696.0445,706.1369 1697.3882,706.1369 Q1698.0132,706.1369 1698.607,705.8713 Q1699.2007,705.59 1699.8257,705.0119 L1699.8257,707.7306 Z " fill="#000000"/><text fill="#000000" font-family="sans-serif" font-size="14" lengthAdjust="spacing" textLength="113.8525" x="1717.357" y="706.9367">TransitionAction</text><line style="stroke:#181818;stroke-width:0.5;" x1="1646.69" x2="1869.3765" y1="718.09" y2="718.09"/><rect fill="none" height="6" style="stroke:#C82930;stroke-width:1;" width="6" x="1653.69" y="728.7384"/><text fill="#000000" font-family="sans-serif" font-size="14" lengthAdjust="spacing" textLength="133.3145" x="1665.69" y="735.0851">GameAction action</text><rect fill="none" height="6" style="stroke:#C82930;stroke-width:1;" width="6" x="1653.69" y="745.0353"/><text fill="#000000" font-family="sans-serif" font-size="14" lengthAdjust="spacing" textLength="198.6865" x="1665.69" y="751.382">GameState destinationState</text><line style="stroke:#181818;stroke-width:0.5;" x1="1646.69" x2="1869.3765" y1="758.6838" y2="758.6838"/></g><!--class GameState--><g class="entity" data-entity="GameState" data-source-line="101" data-uid="ent0009" id="entity_GameState"><rect fill="#F1F1F1" height="178.375" rx="2.5" ry="2.5" style="stroke:#181818;stroke-width:0.5;" width="198.6279" x="1520.72" y="957.76"/><ellipse cx="1576.4158" cy="973.76" fill="#EB937F" rx="11" ry="11" style="stroke:#181818;stroke-width:1;"/><path d="M1580.5252,979.76 L1572.8064,979.76 L1572.8064,967.3694 L1580.5252,967.3694 L1580.5252,969.5256 L1575.2596,969.5256 L1575.2596,972.1975 L1580.0252,972.1975 L1580.0252,974.3538 L1575.2596,974.3538 L1575.2596,977.6038 L1580.5252,977.6038 L1580.5252,979.76 Z " fill="#000000"/><text fill="#000000" font-family="sans-serif" font-size="14" lengthAdjust="spacing" textLength="78.7363" x="1596.9158" y="978.6067">GameState</text><line style="stroke:#181818;stroke-width:0.5;" x1="1521.72" x2="1718.3479" y1="989.76" y2="989.76"/><text fill="#000000" font-family="sans-serif" font-size="14" lengthAdjust="spacing" textLength="43.1689" x="1526.72" y="1006.7551">S_INIT</text><text fill="#000000" font-family="sans-serif" font-size="14" lengthAdjust="spacing" textLength="174.2549" x="1526.72" y="1023.052">S_ACQUISITION_CLAVIER</text><text fill="#000000" font-family="sans-serif" font-size="14" lengthAdjust="spacing" textLength="119.9023" x="1526.72" y="1039.3489">S_DEPLACEMENT</text><text fill="#000000" font-family="sans-serif" font-size="14" lengthAdjust="spacing" textLength="186.6279" x="1526.72" y="1055.6457">S_VERIFICATION_VICTOIRE</text><text fill="#000000" font-family="sans-serif" font-size="14" lengthAdjust="spacing" textLength="103.4072" x="1526.72" y="1071.9426">S_GAME_OVER</text><text fill="#000000" font-family="sans-serif" font-size="14" lengthAdjust="spacing" textLength="64.1689" x="1526.72" y="1088.2395">S_DEATH</text><text fill="#000000" font-family="sans-serif" font-size="14" lengthAdjust="spacing" textLength="72.9326" x="1526.72" y="1104.5364">S_FORGET</text><text fill="#000000" font-family="sans-serif" font-size="14" lengthAdjust="spacing" textLength="71.4902" x="1526.72" y="1120.8332">STATE_NB</text><line style="stroke:#181818;stroke-width:0.5;" x1="1521.72" x2="1718.3479" y1="1128.135" y2="1128.135"/></g><!--class GameEvent--><g class="entity" data-entity="GameEvent" data-source-line="112" data-uid="ent0010" id="entity_GameEvent"><rect fill="#F1F1F1" height="243.5625" rx="2.5" ry="2.5" style="stroke:#181818;stroke-width:0.5;" width="117.4854" x="1905.29" y="604.6"/><ellipse cx="1921.9551" cy="620.6" fill="#EB937F" rx="11" ry="11" style="stroke:#181818;stroke-width:1;"/><path d="M1926.0645,626.6 L1918.3457,626.6 L1918.3457,614.2094 L1926.0645,614.2094 L1926.0645,616.3656 L1920.7988,616.3656 L1920.7988,619.0375 L1925.5645,619.0375 L1925.5645,621.1938 L1920.7988,621.1938 L1920.7988,624.4438 L1926.0645,624.4438 L1926.0645,626.6 Z " fill="#000000"/><text fill="#000000" font-family="sans-serif" font-size="14" lengthAdjust="spacing" textLength="81.7852" x="1936.3251" y="625.4467">GameEvent</text><line style="stroke:#181818;stroke-width:0.5;" x1="1906.29" x2="2021.7754" y1="636.6" y2="636.6"/><text fill="#000000" font-family="sans-serif" font-size="14" lengthAdjust="spacing" textLength="61.1406" x="1911.29" y="653.5951">E_START</text><text fill="#000000" font-family="sans-serif" font-size="14" lengthAdjust="spacing" textLength="68.1133" x="1911.29" y="669.892">E_KEY_UP</text><text fill="#000000" font-family="sans-serif" font-size="14" lengthAdjust="spacing" textLength="95.5391" x="1911.29" y="686.1889">E_KEY_DOWN</text><text fill="#000000" font-family="sans-serif" font-size="14" lengthAdjust="spacing" textLength="82.6738" x="1911.29" y="702.4857">E_KEY_LEFT</text><text fill="#000000" font-family="sans-serif" font-size="14" lengthAdjust="spacing" textLength="93.208" x="1911.29" y="718.7826">E_KEY_RIGHT</text><text fill="#000000" font-family="sans-serif" font-size="14" lengthAdjust="spacing" textLength="83.3711" x="1911.29" y="735.0795">E_KEY_QUIT</text><text fill="#000000" font-family="sans-serif" font-size="14" lengthAdjust="spacing" textLength="98.0957" x="1911.29" y="751.3764">E_OTHER_KEY</text><text fill="#000000" font-family="sans-serif" font-size="14" lengthAdjust="spacing" textLength="105.4854" x="1911.29" y="767.6732">E_MOVE_DONE</text><text fill="#000000" font-family="sans-serif" font-size="14" lengthAdjust="spacing" textLength="77.1777" x="1911.29" y="783.9701">E_VICTORY</text><text fill="#000000" font-family="sans-serif" font-size="14" lengthAdjust="spacing" textLength="70.499" x="1911.29" y="800.267">E_DEFEAT</text><text fill="#000000" font-family="sans-serif" font-size="14" lengthAdjust="spacing" textLength="89.3594" x="1911.29" y="816.5639">E_CONTINUE</text><text fill="#000000" font-family="sans-serif" font-size="14" lengthAdjust="spacing" textLength="73.3701" x="1911.29" y="832.8607">EVENT_NB</text><line style="stroke:#181818;stroke-width:0.5;" x1="1906.29" x2="2021.7754" y1="840.1625" y2="840.1625"/></g><!--class GameAction--><g class="entity" data-entity="GameAction" data-source-line="127" data-uid="ent0011" id="entity_GameAction"><rect fill="#F1F1F1" height="243.5625" rx="2.5" ry="2.5" style="stroke:#181818;stroke-width:0.5;" width="138.3828" x="1888.84" y="925.17"/><ellipse cx="1913.1155" cy="941.17" fill="#EB937F" rx="11" ry="11" style="stroke:#181818;stroke-width:1;"/><path d="M1917.2249,947.17 L1909.5062,947.17 L1909.5062,934.7794 L1917.2249,934.7794 L1917.2249,936.9356 L1911.9593,936.9356 L1911.9593,939.6075 L1916.7249,939.6075 L1916.7249,941.7638 L1911.9593,941.7638 L1911.9593,945.0138 L1917.2249,945.0138 L1917.2249,947.17 Z " fill="#000000"/><text fill="#000000" font-family="sans-serif" font-size="14" lengthAdjust="spacing" textLength="85.7705" x="1929.1768" y="946.0167">GameAction</text><line style="stroke:#181818;stroke-width:0.5;" x1="1889.84" x2="2026.2228" y1="957.17" y2="957.17"/><text fill="#000000" font-family="sans-serif" font-size="14" lengthAdjust="spacing" textLength="46.5117" x="1894.84" y="974.1651">A_NOP</text><text fill="#000000" font-family="sans-serif" font-size="14" lengthAdjust="spacing" textLength="92.21" x="1894.84" y="990.462">A_INIT_GAME</text><text fill="#000000" font-family="sans-serif" font-size="14" lengthAdjust="spacing" textLength="83.7881" x="1894.84" y="1006.7589">A_MOVE_UP</text><text fill="#000000" font-family="sans-serif" font-size="14" lengthAdjust="spacing" textLength="111.2139" x="1894.84" y="1023.0557">A_MOVE_DOWN</text><text fill="#000000" font-family="sans-serif" font-size="14" lengthAdjust="spacing" textLength="98.3486" x="1894.84" y="1039.3526">A_MOVE_LEFT</text><text fill="#000000" font-family="sans-serif" font-size="14" lengthAdjust="spacing" textLength="108.8828" x="1894.84" y="1055.6495">A_MOVE_RIGHT</text><text fill="#000000" font-family="sans-serif" font-size="14" lengthAdjust="spacing" textLength="106.251" x="1894.84" y="1071.9464">A_PRINT_GAME</text><text fill="#000000" font-family="sans-serif" font-size="14" lengthAdjust="spacing" textLength="126.3828" x="1894.84" y="1088.2432">A_CHECK_STATUS</text><text fill="#000000" font-family="sans-serif" font-size="14" lengthAdjust="spacing" textLength="126.2324" x="1894.84" y="1104.5401">A_PRINT_VICTORY</text><text fill="#000000" font-family="sans-serif" font-size="14" lengthAdjust="spacing" textLength="119.5537" x="1894.84" y="1120.837">A_PRINT_DEFEAT</text><text fill="#000000" font-family="sans-serif" font-size="14" lengthAdjust="spacing" textLength="100.3994" x="1894.84" y="1137.1339">A_FREE_GAME</text><text fill="#000000" font-family="sans-serif" font-size="14" lengthAdjust="spacing" textLength="80.6025" x="1894.84" y="1153.4307">ACTION_NB</text><line style="stroke:#181818;stroke-width:0.5;" x1="1889.84" x2="2026.2228" y1="1160.7325" y2="1160.7325"/></g><!--reverse link Game to Map--><g class="link" data-entity-1="Game" data-entity-2="Map" data-source-line="143" data-uid="lnk12" id="link_Game_Map"><path codeLine="143" d="M1163.0108,312.4006 C937.3508,362.0906 585.26,455.23 299.03,604.6 C277.56,615.81 256.08,630.09 236.24,644.88" fill="none" id="Game-backto-Map" style="stroke:#181818;stroke-width:1;"/><polygon fill="#181818" points="1174.73,309.82,1168.0102,307.2039,1163.0108,312.4006,1169.7306,315.0167,1174.73,309.82" style="stroke:#181818;stroke-width:1;"/><text fill="#000000" font-family="sans-serif" font-size="13" lengthAdjust="spacing" textLength="8.271" x="1158.9974" y="308.1476">1</text><text fill="#000000" font-family="sans-serif" font-size="13" lengthAdjust="spacing" textLength="8.271" x="235.8318" y="634.3034">1</text></g><!--reverse link Game to Player--><g class="link" data-entity-1="Game" data-entity-2="Player" data-source-line="144" data-uid="lnk13" id="link_Game_Player"><path codeLine="144" d="M1163.6701,346.1729 C1002.2501,406.5329 788.28,495.4 605.03,604.6 C599.37,607.98 593.67,611.55 587.99,615.25" fill="none" id="Game-backto-Player" style="stroke:#181818;stroke-width:1;"/><polygon fill="#181818" points="1174.91,341.97,1167.8891,340.3248,1163.6701,346.1729,1170.691,347.8181,1174.91,341.97" style="stroke:#181818;stroke-width:1;"/><text fill="#000000" font-family="sans-serif" font-size="13" lengthAdjust="spacing" textLength="8.271" x="1159.1839" y="341.453">1</text><text fill="#000000" font-family="sans-serif" font-size="13" lengthAdjust="spacing" textLength="8.271" x="595.6514" y="605.8329">1</text></g><!--reverse link Game to Treasure--><g class="link" data-entity-1="Game" data-entity-2="Treasure" data-source-line="145" data-uid="lnk14" id="link_Game_Treasure"><path codeLine="145" d="M1165.3012,433.4282 C1075.2712,500.7782 982.73,570.01 904.21,628.75" fill="none" id="Game-backto-Treasure" style="stroke:#181818;stroke-width:1;"/><polygon fill="#181818" points="1174.91,426.24,1167.7095,426.6312,1165.3012,433.4282,1172.5017,433.037,1174.91,426.24" style="stroke:#181818;stroke-width:1;"/><text fill="#000000" font-family="sans-serif" font-size="13" lengthAdjust="spacing" textLength="8.271" x="1159.1839" y="428.7515">1</text><text fill="#000000" font-family="sans-serif" font-size="13" lengthAdjust="spacing" textLength="8.271" x="905.4122" y="618.1009">1</text></g><!--reverse link Game to Pirate--><g class="link" data-entity-1="Game" data-entity-2="Pirate" data-source-line="146" data-uid="lnk15" id="link_Game_Pirate"><path codeLine="146" d="M1214.3244,538.012 C1191.5144,573.832 1175.82,598.5 1156.63,628.64" fill="none" id="Game-backto-Pirate" style="stroke:#181818;stroke-width:1;"/><polygon fill="#181818" points="1220.77,527.89,1214.1732,530.8024,1214.3244,538.012,1220.9212,535.0995,1220.77,527.89" style="stroke:#181818;stroke-width:1;"/><text fill="#000000" font-family="sans-serif" font-size="13" lengthAdjust="spacing" textLength="8.271" x="1207.749" y="547.9176">1</text><text fill="#000000" font-family="sans-serif" font-size="13" lengthAdjust="spacing" textLength="8.271" x="1152.8695" y="617.9828">1</text></g><!--reverse link Game to Trap--><g class="link" data-entity-1="Game" data-entity-2="Trap" data-source-line="147" data-uid="lnk16" id="link_Game_Trap"><path codeLine="147" d="M1386.03,539.89 C1386.03,569.47 1386.03,586.35 1386.03,612.49" fill="none" id="Game-backto-Trap" style="stroke:#181818;stroke-width:1;"/><polygon fill="#181818" points="1386.03,527.89,1382.03,533.89,1386.03,539.89,1390.03,533.89,1386.03,527.89" style="stroke:#181818;stroke-width:1;"/><text fill="#000000" font-family="sans-serif" font-size="13" lengthAdjust="spacing" textLength="8.271" x="1377.9152" y="547.9176">1</text><text fill="#000000" font-family="sans-serif" font-size="13" lengthAdjust="spacing" textLength="52.3491" x="1332.3751" y="601.7844">NBTRAP</text></g><!--reverse link Game to TransitionAction--><g class="link" data-entity-1="Game" data-entity-2="TransitionAction" data-source-line="148" data-uid="lnk17" id="link_Game_TransitionAction"><path codeLine="148" d="M1604.8754,537.1967 C1655.3254,599.1767 1695.67,648.75 1725.84,685.83" fill="none" id="Game-backto-TransitionAction" style="stroke:#181818;stroke-width:1;"/><polygon fill="#181818" points="1597.3,527.89,1597.9855,535.0684,1604.8754,537.1967,1604.1899,530.0182,1597.3,527.89" style="stroke:#181818;stroke-width:1;"/></g><!--link Game to GameState--><g class="link" data-entity-1="Game" data-entity-2="GameState" data-source-line="150" data-uid="lnk18" id="link_Game_GameState"><path codeLine="150" d="M1500.47,527.67 C1510.11,553.42 1519.16,579.37 1527.03,604.6 C1564.46,724.58 1590.525,861.6814 1605.505,951.6914" fill="none" id="Game-to-GameState" style="stroke:#181818;stroke-width:1;"/><polygon fill="#181818" points="1606.49,957.61,1608.9582,948.0754,1605.6692,952.6778,1601.0668,949.3888,1606.49,957.61" style="stroke:#181818;stroke-width:1;"/><text fill="#000000" font-family="sans-serif" font-size="13" lengthAdjust="spacing" textLength="29.7832" x="1587.03" y="730.9569">uses</text></g><!--link Game to GameEvent--><g class="link" data-entity-1="Game" data-entity-2="GameEvent" data-source-line="151" data-uid="lnk19" id="link_Game_GameEvent"><path codeLine="151" d="M1597.38,382.49 C1693.16,440.77 1803.59,517.71 1888.03,604.6 C1893.91,610.65 1895.854,612.4914 1901.234,619.3414" fill="none" id="Game-to-GameEvent" style="stroke:#181818;stroke-width:1;"/><polygon fill="#181818" points="1904.94,624.06,1902.5267,614.5114,1901.8517,620.1278,1896.2352,619.4527,1904.94,624.06" style="stroke:#181818;stroke-width:1;"/><text fill="#000000" font-family="sans-serif" font-size="13" lengthAdjust="spacing" textLength="29.7832" x="1855.03" y="570.6669">uses</text></g><!--link Game to GameAction--><g class="link" data-entity-1="Game" data-entity-2="GameAction" data-source-line="152" data-uid="lnk20" id="link_Game_GameAction"><path codeLine="152" d="M1597.05,314.97 C1749.31,360.88 1944.27,447.67 2040.03,604.6 C2099.2,701.57 2066.8233,825.6824 2025.8833,919.3324" fill="none" id="Game-to-GameAction" style="stroke:#181818;stroke-width:1;"/><polygon fill="#181818" points="2023.48,924.83,2030.7501,918.1858,2025.4828,920.2486,2023.4199,914.9813,2023.48,924.83" style="stroke:#181818;stroke-width:1;"/><text fill="#000000" font-family="sans-serif" font-size="13" lengthAdjust="spacing" textLength="29.7832" x="2072.03" y="730.9569">uses</text></g><!--link TransitionAction to GameAction--><g class="link" data-entity-1="TransitionAction" data-entity-2="GameAction" data-source-line="153" data-uid="lnk21" id="link_TransitionAction_GameAction"><path codeLine="153" d="M1782.96,767.09 C1809.24,808.95 1848.6397,871.7085 1885.2297,929.9885" fill="none" id="TransitionAction-to-GameAction" style="stroke:#181818;stroke-width:1;"/><polygon fill="#181818" points="1888.42,935.07,1887.0222,925.3208,1885.7614,930.8354,1880.2468,929.5746,1888.42,935.07" style="stroke:#181818;stroke-width:1;"/><text fill="#000000" font-family="sans-serif" font-size="13" lengthAdjust="spacing" textLength="55.0278" x="1859.03" y="891.2369">contains</text></g><!--link TransitionAction to GameState--><g class="link" data-entity-1="TransitionAction" data-entity-2="GameState" data-source-line="154" data-uid="lnk22" id="link_TransitionAction_GameState"><path codeLine="154" d="M1740.84,767.09 C1720.32,814.46 1687.7746,889.5642 1660.7446,951.9742" fill="none" id="TransitionAction-to-GameState" style="stroke:#181818;stroke-width:1;"/><polygon fill="#181818" points="1658.36,957.48,1665.6074,950.811,1660.3472,952.8918,1658.2663,947.6316,1658.36,957.48" style="stroke:#181818;stroke-width:1;"/><text fill="#000000" font-family="sans-serif" font-size="13" lengthAdjust="spacing" textLength="55.0278" x="1690.03" y="891.2369">contains</text></g><!--SRC=[bLRVRvim47xFNu7wiYHh7lQwXqcKEWbgGnWXQQAgGXRn6ZH2CknqgwhzxxFFFp26JTqBsDztTxuxFXld9QRKc-4ZyTu6dZTPuFFOE-Ap6CSbVYNrs3l3Mo1fJJ2zr6JiCJK2kwB6Z6DdU4ix4ORnvsDqaoP-_2HGiSgASHCllzGrgHXC15DKp7lcxBIe2deWUnMZeWKhJfMVYwS8fu05PdNnwt6L-YdAefkdHxH1KIf6tF5ZHNwAbOOZA6ii814xhBWlBWkAHOWXS2D1Vgi90OS64lPnpREoiFn0yk-wX0jLZCUD17iylH3P1qbS2s9ahmt5Bd1-A2ftgJckzYL1BqGlU0sf0z34eBexpjAKuPer1K0ZmGldFow5x5XGufU2rAx5dl1lcvEZMRYXeDo7ed9nCPWH1hbDwzFnZhmEymEkHqtAbbbWVMYTjf41s1769MUrtnCAL8mKe4qgIIfUoz6sC1BLCU2Zj698kIf-LXTxcnMrZ9i5shc1hiU3tuD13lk6vogtZVJoddam9K5E3PjY-8voz2SO8pzXR02LbC6ibAYa0bAMcWQXgGTy1oj4lvqCs1GXUohh41lnV9AQoNvra5UD70WksK6LAWCCMrz7dXbEpOgtKj4DK26KWQuXFb69R0sZHM-pkmvB-toR5McVixLZ2Pj3VKvMLlG-NWKmVTLAV7TdHI-rqz1HiZvldOuQcvwUcb36oEghnhOMs-wjndSz5lHlCTmUzmHnsoItutyrIHsqhQqiVpwku2JV9pWPGXdOWWDaQnX7S83kEYpjy-q8hktSrOi-JTwj5JXZu50Ia1XqzD7U-eqsk2kGBKtWyrQXhXRmUUSmrFNfVdlZrAAYIrawgtKPlLghFUtxm9k-KwWvXbVxeh4db1KLz4B-SdWuKbsEpKy8mgooC0fJ6FZ1rtMu2jDm6MN1lRy9KGBuBOhl_G0j-4K3vXkKXDCmyC5m4mRfCamGC3D_WRBbnlZvwHn6qsKoG-2ixYsjPE3F2ScWZ1iaAOpkq2vRnsPukto8pEGUJHkZ99pDcnalGKwMwHmb0eBPWcV5OqG8Pf1q8fbRDELvmZ1OHcaOhS56NQjQYLhTzxDe6SDRj0yAXnciiuwRiSfRpLJYQgOpzxCu2IChIZ17mPteHRfUMNoJjaPCydusJH0o4GBuDZBz3rv2Ij017S1jz-hJbJUUJE3D_uzTK9xgNLmVP3qUylxRnkNzzmfsgQG4x8fv8Ad9v8kbpC_UXHBQPgHC-XZrNHJLsIqTi_nKCLnK_p3LMMZBFm00]--></g></svg>