<?xml version="1.0" encoding="UTF-8" standalone="no"?>
<!DOCTYPE svg PUBLIC "-//W3C//DTD SVG 1.1//EN"
 "http://www.w3.org/Graphics/SVG/1.1/DTD/svg11.dtd">
<!-- Generated by graphviz version 2.43.0 (0)
 -->
<!-- Title: StateMachine Pages: 1 -->
<svg width="2040pt" height="293pt"
 viewBox="0.00 0.00 2039.61 293.33" xmlns="http://www.w3.org/2000/svg" xmlns:xlink="http://www.w3.org/1999/xlink">
<g id="graph0" class="graph" transform="scale(1 1) rotate(0) translate(4 289.33)">
<title>StateMachine</title>
<polygon fill="white" stroke="transparent" points="-4,4 -4,-289.33 2035.61,-289.33 2035.61,4 -4,4"/>
<!-- S_INIT -->
<g id="node1" class="node">
<title>S_INIT</title>
<ellipse fill="none" stroke="black" cx="42.25" cy="-69.33" rx="42.49" ry="18"/>
<text text-anchor="middle" x="42.25" y="-65.63" font-family="Times,serif" font-size="14.00">S_INIT</text>
</g>
<!-- S_ACQUISITION_CLAVIER -->
<g id="node2" class="node">
<title>S_ACQUISITION_CLAVIER</title>
<ellipse fill="none" stroke="black" cx="433.38" cy="-69.33" rx="133.78" ry="18"/>
<text text-anchor="middle" x="433.38" y="-65.63" font-family="Times,serif" font-size="14.00">S_ACQUISITION_CLAVIER</text>
</g>
<!-- S_INIT&#45;&gt;S_ACQUISITION_CLAVIER -->
<g id="edge1" class="edge">
<title>S_INIT&#45;&gt;S_ACQUISITION_CLAVIER</title>
<path fill="none" stroke="black" d="M84.52,-69.33C133.09,-69.33 216.38,-69.33 289.27,-69.33"/>
<polygon fill="black" stroke="black" points="289.49,-72.83 299.49,-69.33 289.49,-65.83 289.49,-72.83"/>
<text text-anchor="middle" x="191.99" y="-73.13" font-family="Times,serif" font-size="14.00">E_START / A_INIT_GAME</text>
</g>
<!-- S_ACQUISITION_CLAVIER&#45;&gt;S_ACQUISITION_CLAVIER -->
<g id="edge2" class="edge">
<title>S_ACQUISITION_CLAVIER&#45;&gt;S_ACQUISITION_CLAVIER</title>
<path fill="none" stroke="black" d="M426.14,-87.48C425.03,-96.87 427.44,-105.33 433.38,-105.33 437,-105.33 439.31,-102.19 440.31,-97.61"/>
<polygon fill="black" stroke="black" points="443.81,-97.59 440.62,-87.48 436.81,-97.37 443.81,-97.59"/>
<text text-anchor="middle" x="433.38" y="-109.13" font-family="Times,serif" font-size="14.00">E_START / A_NOP</text>
</g>
<!-- S_ACQUISITION_CLAVIER&#45;&gt;S_ACQUISITION_CLAVIER -->
<g id="edge8" class="edge">
<title>S_ACQUISITION_CLAVIER&#45;&gt;S_ACQUISITION_CLAVIER</title>
<path fill="none" stroke="black" d="M421.36,-87.31C414.92,-104.53 418.93,-123.33 433.38,-123.33 445.12,-123.33 449.97,-110.92 447.92,-97.03"/>
<polygon fill="black" stroke="black" points="451.3,-96.11 445.41,-87.31 444.53,-97.87 451.3,-96.11"/>
<text text-anchor="middle" x="433.38" y="-127.13" font-family="Times,serif" font-size="14.00">E_OTHER_KEY / A_NOP</text>
</g>
<!-- S_ACQUISITION_CLAVIER&#45;&gt;S_ACQUISITION_CLAVIER -->
<g id="edge9" class="edge">
<title>S_ACQUISITION_CLAVIER&#45;&gt;S_ACQUISITION_CLAVIER</title>
<path fill="none" stroke="black" d="M418.2,-87.41C404.77,-111.74 409.83,-141.33 433.38,-141.33 453.99,-141.33 460.44,-118.68 452.73,-96.71"/>
<polygon fill="black" stroke="black" points="455.85,-95.1 448.56,-87.41 449.46,-97.97 455.85,-95.1"/>
<text text-anchor="middle" x="433.38" y="-145.13" font-family="Times,serif" font-size="14.00">E_MOVE_DONE / A_NOP</text>
</g>
<!-- S_ACQUISITION_CLAVIER&#45;&gt;S_ACQUISITION_CLAVIER -->
<g id="edge10" class="edge">
<title>S_ACQUISITION_CLAVIER&#45;&gt;S_ACQUISITION_CLAVIER</title>
<path fill="none" stroke="black" d="M415.99,-87.44C394.62,-118.57 400.41,-159.33 433.38,-159.33 463.26,-159.33 470.82,-125.86 456.06,-96.41"/>
<polygon fill="black" stroke="black" points="458.87,-94.27 450.77,-87.44 452.84,-97.83 458.87,-94.27"/>
<text text-anchor="middle" x="433.38" y="-163.13" font-family="Times,serif" font-size="14.00">E_VICTORY / A_NOP</text>
</g>
<!-- S_ACQUISITION_CLAVIER&#45;&gt;S_ACQUISITION_CLAVIER -->
<g id="edge11" class="edge">
<title>S_ACQUISITION_CLAVIER&#45;&gt;S_ACQUISITION_CLAVIER</title>
<path fill="none" stroke="black" d="M414.42,-87.39C384.48,-125.12 390.8,-177.33 433.38,-177.33 472.8,-177.33 481.14,-132.58 458.41,-96"/>
<polygon fill="black" stroke="black" points="460.96,-93.55 452.34,-87.39 455.24,-97.58 460.96,-93.55"/>
<text text-anchor="middle" x="433.38" y="-181.13" font-family="Times,serif" font-size="14.00">E_DEFEAT / A_NOP</text>
</g>
<!-- S_ACQUISITION_CLAVIER&#45;&gt;S_ACQUISITION_CLAVIER -->
<g id="edge12" class="edge">
<title>S_ACQUISITION_CLAVIER&#45;&gt;S_ACQUISITION_CLAVIER</title>
<path fill="none" stroke="black" d="M413.17,-87.4C374.38,-131.59 381.11,-195.33 433.38,-195.33 482.58,-195.33 491.44,-138.84 459.94,-95.35"/>
<polygon fill="black" stroke="black" points="462.57,-93.03 453.59,-87.4 457.1,-97.4 462.57,-93.03"/>
<text text-anchor="middle" x="433.38" y="-199.13" font-family="Times,serif" font-size="14.00">E_CONTINUE / A_NOP</text>
</g>
<!-- S_DEPLACEMENT -->
<g id="node3" class="node">
<title>S_DEPLACEMENT</title>
<ellipse fill="none" stroke="black" cx="935.76" cy="-69.33" rx="97.48" ry="18"/>
<text text-anchor="middle" x="935.76" y="-65.63" font-family="Times,serif" font-size="14.00">S_DEPLACEMENT</text>
</g>
<!-- S_ACQUISITION_CLAVIER&#45;&gt;S_DEPLACEMENT -->
<g id="edge3" class="edge">
<title>S_ACQUISITION_CLAVIER&#45;&gt;S_DEPLACEMENT</title>
<path fill="none" stroke="black" d="M567.49,-69.33C648.95,-69.33 751.79,-69.33 827.92,-69.33"/>
<polygon fill="black" stroke="black" points="828.01,-72.83 838.01,-69.33 828.01,-65.83 828.01,-72.83"/>
<text text-anchor="middle" x="702.77" y="-73.13" font-family="Times,serif" font-size="14.00">E_KEY_UP / A_MOVE_UP</text>
</g>
<!-- S_ACQUISITION_CLAVIER&#45;&gt;S_DEPLACEMENT -->
<g id="edge4" class="edge">
<title>S_ACQUISITION_CLAVIER&#45;&gt;S_DEPLACEMENT</title>
<path fill="none" stroke="black" d="M524.77,-56.08C544.65,-53.69 565.64,-51.56 585.27,-50.33 689.51,-43.79 716.18,-41.75 820.27,-50.33 832.55,-51.34 845.49,-52.96 858.09,-54.83"/>
<polygon fill="black" stroke="black" points="857.68,-58.3 868.09,-56.37 858.75,-51.39 857.68,-58.3"/>
<text text-anchor="middle" x="702.77" y="-54.13" font-family="Times,serif" font-size="14.00">E_KEY_DOWN / A_MOVE_DOWN</text>
</g>
<!-- S_ACQUISITION_CLAVIER&#45;&gt;S_DEPLACEMENT -->
<g id="edge5" class="edge">
<title>S_ACQUISITION_CLAVIER&#45;&gt;S_DEPLACEMENT</title>
<path fill="none" stroke="black" d="M479.86,-52.4C509.43,-42.31 549.07,-30.5 585.27,-25.33 688.66,-10.56 717.58,-6.28 820.27,-25.33 844.6,-29.85 870.43,-39.33 891.39,-48.34"/>
<polygon fill="black" stroke="black" points="890.09,-51.59 900.65,-52.42 892.92,-45.19 890.09,-51.59"/>
<text text-anchor="middle" x="702.77" y="-29.13" font-family="Times,serif" font-size="14.00">E_KEY_LEFT / A_MOVE_LEFT</text>
</g>
<!-- S_ACQUISITION_CLAVIER&#45;&gt;S_DEPLACEMENT -->
<g id="edge6" class="edge">
<title>S_ACQUISITION_CLAVIER&#45;&gt;S_DEPLACEMENT</title>
<path fill="none" stroke="black" d="M524.77,-82.58C544.65,-84.98 565.64,-87.1 585.27,-88.33 689.51,-94.87 716.18,-96.91 820.27,-88.33 832.55,-87.32 845.49,-85.71 858.09,-83.84"/>
<polygon fill="black" stroke="black" points="858.75,-87.28 868.09,-82.29 857.68,-80.36 858.75,-87.28"/>
<text text-anchor="middle" x="702.77" y="-97.13" font-family="Times,serif" font-size="14.00">E_KEY_RIGHT / A_MOVE_RIGHT</text>
</g>
<!-- S_GAME_OVER -->
<g id="node4" class="node">
<title>S_GAME_OVER</title>
<ellipse fill="none" stroke="black" cx="1948.42" cy="-31.33" rx="83.39" ry="18"/>
<text text-anchor="middle" x="1948.42" y="-27.63" font-family="Times,serif" font-size="14.00">S_GAME_OVER</text>
</g>
<!-- S_ACQUISITION_CLAVIER&#45;&gt;S_GAME_OVER -->
<g id="edge7" class="edge">
<title>S_ACQUISITION_CLAVIER&#45;&gt;S_GAME_OVER</title>
<path fill="none" stroke="black" d="M467.72,-51.81C497.58,-37.16 543.05,-17.42 585.27,-9.33 687.85,10.32 715.83,-8.77 820.27,-9.33 1276.71,-11.78 1391.6,7.05 1847.23,-20.33 1853.1,-20.69 1859.16,-21.14 1865.26,-21.65"/>
<polygon fill="black" stroke="black" points="1865.25,-25.16 1875.52,-22.57 1865.88,-18.19 1865.25,-25.16"/>
<text text-anchor="middle" x="1173.25" y="-13.13" font-family="Times,serif" font-size="14.00">E_KEY_QUIT / A_FREE_GAME</text>
</g>
<!-- S_VERIFICATION_VICTOIRE -->
<g id="node5" class="node">
<title>S_VERIFICATION_VICTOIRE</title>
<ellipse fill="none" stroke="black" cx="1456.24" cy="-69.33" rx="142.97" ry="18"/>
<text text-anchor="middle" x="1456.24" y="-65.63" font-family="Times,serif" font-size="14.00">S_VERIFICATION_VICTOIRE</text>
</g>
<!-- S_DEPLACEMENT&#45;&gt;S_VERIFICATION_VICTOIRE -->
<g id="edge13" class="edge">
<title>S_DEPLACEMENT&#45;&gt;S_VERIFICATION_VICTOIRE</title>
<path fill="none" stroke="black" d="M1033.37,-69.33C1109.04,-69.33 1215.72,-69.33 1302.86,-69.33"/>
<polygon fill="black" stroke="black" points="1303.12,-72.83 1313.12,-69.33 1303.12,-65.83 1303.12,-72.83"/>
<text text-anchor="middle" x="1173.25" y="-73.13" font-family="Times,serif" font-size="14.00">E_MOVE_DONE / A_PRINT_GAME</text>
</g>
<!-- S_VERIFICATION_VICTOIRE&#45;&gt;S_ACQUISITION_CLAVIER -->
<g id="edge16" class="edge">
<title>S_VERIFICATION_VICTOIRE&#45;&gt;S_ACQUISITION_CLAVIER</title>
<path fill="none" stroke="black" d="M1371.4,-83.87C1215.7,-108.58 871.7,-152.35 585.27,-112.33 553.29,-107.86 518.58,-98.32 490.52,-89.35"/>
<polygon fill="black" stroke="black" points="491.48,-85.98 480.89,-86.21 489.32,-92.64 491.48,-85.98"/>
<text text-anchor="middle" x="935.76" y="-132.13" font-family="Times,serif" font-size="14.00">E_CONTINUE / A_NOP</text>
</g>
<!-- S_VERIFICATION_VICTOIRE&#45;&gt;S_GAME_OVER -->
<g id="edge14" class="edge">
<title>S_VERIFICATION_VICTOIRE&#45;&gt;S_GAME_OVER</title>
<path fill="none" stroke="black" d="M1514.45,-52.82C1544.72,-44.92 1582.68,-36.33 1617.23,-32.33 1698.34,-22.95 1791.41,-23.7 1858.02,-26.21"/>
<polygon fill="black" stroke="black" points="1857.93,-29.71 1868.07,-26.61 1858.21,-22.71 1857.93,-29.71"/>
<text text-anchor="middle" x="1732.23" y="-36.13" font-family="Times,serif" font-size="14.00">E_VICTORY / A_PRINT_VICTORY</text>
</g>
<!-- S_VERIFICATION_VICTOIRE&#45;&gt;S_GAME_OVER -->
<g id="edge15" class="edge">
<title>S_VERIFICATION_VICTOIRE&#45;&gt;S_GAME_OVER</title>
<path fill="none" stroke="black" d="M1595.14,-64.98C1669.89,-61.76 1763.79,-56.32 1847.23,-47.33 1855.6,-46.43 1864.33,-45.31 1873.01,-44.08"/>
<polygon fill="black" stroke="black" points="1873.76,-47.51 1883.14,-42.59 1872.74,-40.58 1873.76,-47.51"/>
<text text-anchor="middle" x="1732.23" y="-67.13" font-family="Times,serif" font-size="14.00">E_DEFEAT / A_PRINT_DEFEAT</text>
</g>
</g>
</svg>
