<?xml version="1.0" encoding="UTF-8" standalone="no"?>
<!DOCTYPE svg PUBLIC "-//W3C//DTD SVG 1.1//EN"
 "http://www.w3.org/Graphics/SVG/1.1/DTD/svg11.dtd">
<!-- Generated by graphviz version 2.43.0 (0)
 -->
<!-- Title: Source/Game.c Pages: 1 -->
<svg width="743pt" height="192pt"
 viewBox="0.00 0.00 742.50 192.00" xmlns="http://www.w3.org/2000/svg" xmlns:xlink="http://www.w3.org/1999/xlink">
<g id="graph0" class="graph" transform="scale(1 1) rotate(0) translate(4 188)">
<title>Source/Game.c</title>
<!-- Node1 -->
<g id="Node000001" class="node">
<title>Node1</title>
<g id="a_Node000001"><a xlink:title=" ">
<polygon fill="#999999" stroke="#666666" points="462.5,-184 372.5,-184 372.5,-165 462.5,-165 462.5,-184"/>
<text text-anchor="middle" x="417.5" y="-172" font-family="Helvetica,sans-Serif" font-size="10.00">Source/Game.c</text>
</a>
</g>
</g>
<!-- Node2 -->
<g id="Node000002" class="node">
<title>Node2</title>
<g id="a_Node000002"><a xlink:title=" ">
<polygon fill="#e0e0e0" stroke="#999999" points="53,-129 0,-129 0,-110 53,-110 53,-129"/>
<text text-anchor="middle" x="26.5" y="-117" font-family="Helvetica,sans-Serif" font-size="10.00">stdlib.h</text>
</a>
</g>
</g>
<!-- Node1&#45;&gt;Node2 -->
<g id="edge1_Node000001_Node000002" class="edge">
<title>Node1&#45;&gt;Node2</title>
<g id="a_edge1_Node000001_Node000002"><a xlink:title=" ">
<path fill="none" stroke="#63b8ff" d="M372.43,-169.41C306.64,-163.1 180.3,-149.7 63.04,-128.9"/>
<polygon fill="#63b8ff" stroke="#63b8ff" points="63.63,-125.46 53.17,-127.13 62.39,-132.34 63.63,-125.46"/>
</a>
</g>
</g>
<!-- Node3 -->
<g id="Node000003" class="node">
<title>Node3</title>
<g id="a_Node000003"><a xlink:title=" ">
<polygon fill="#e0e0e0" stroke="#999999" points="119.5,-129 71.5,-129 71.5,-110 119.5,-110 119.5,-129"/>
<text text-anchor="middle" x="95.5" y="-117" font-family="Helvetica,sans-Serif" font-size="10.00">time.h</text>
</a>
</g>
</g>
<!-- Node1&#45;&gt;Node3 -->
<g id="edge2_Node000001_Node000003" class="edge">
<title>Node1&#45;&gt;Node3</title>
<g id="a_edge2_Node000001_Node000003"><a xlink:title=" ">
<path fill="none" stroke="#63b8ff" d="M372.2,-167.94C317.1,-160.87 221.08,-147.54 129.57,-129.04"/>
<polygon fill="#63b8ff" stroke="#63b8ff" points="130.08,-125.57 119.59,-127 128.68,-132.43 130.08,-125.57"/>
</a>
</g>
</g>
<!-- Node4 -->
<g id="Node000004" class="node">
<title>Node4</title>
<g id="a_Node000004"><a xlink:title=" ">
<polygon fill="#e0e0e0" stroke="#999999" points="187.5,-129 137.5,-129 137.5,-110 187.5,-110 187.5,-129"/>
<text text-anchor="middle" x="162.5" y="-117" font-family="Helvetica,sans-Serif" font-size="10.00">stdio.h</text>
</a>
</g>
</g>
<!-- Node1&#45;&gt;Node4 -->
<g id="edge3_Node000001_Node000004" class="edge">
<title>Node1&#45;&gt;Node4</title>
<g id="a_edge3_Node000001_Node000004"><a xlink:title=" ">
<path fill="none" stroke="#63b8ff" d="M372.08,-164.99C329.5,-156.87 263.82,-143.98 197.87,-129.23"/>
<polygon fill="#63b8ff" stroke="#63b8ff" points="198.24,-125.73 187.72,-126.94 196.71,-132.55 198.24,-125.73"/>
</a>
</g>
</g>
<!-- Node5 -->
<g id="Node000005" class="node">
<title>Node5</title>
<g id="a_Node000005"><a xlink:title=" ">
<polygon fill="#e0e0e0" stroke="#999999" points="261.5,-129 205.5,-129 205.5,-110 261.5,-110 261.5,-129"/>
<text text-anchor="middle" x="233.5" y="-117" font-family="Helvetica,sans-Serif" font-size="10.00">assert.h</text>
</a>
</g>
</g>
<!-- Node1&#45;&gt;Node5 -->
<g id="edge4_Node000001_Node000005" class="edge">
<title>Node1&#45;&gt;Node5</title>
<g id="a_edge4_Node000001_Node000005"><a xlink:title=" ">
<path fill="none" stroke="#63b8ff" d="M387.94,-164.98C356.32,-155.88 306.06,-141.4 271.52,-131.45"/>
<polygon fill="#63b8ff" stroke="#63b8ff" points="272.36,-128.05 261.78,-128.65 270.42,-134.78 272.36,-128.05"/>
</a>
</g>
</g>
<!-- Node6 -->
<g id="Node000006" class="node">
<title>Node6</title>
<g id="a_Node000006"><a xlink:href="Getch_8h.html" target="_top" xlink:title=" ">
<polygon fill="white" stroke="#666666" points="333.5,-129 279.5,-129 279.5,-110 333.5,-110 333.5,-129"/>
<text text-anchor="middle" x="306.5" y="-117" font-family="Helvetica,sans-Serif" font-size="10.00">Getch.h</text>
</a>
</g>
</g>
<!-- Node1&#45;&gt;Node6 -->
<g id="edge5_Node000001_Node000006" class="edge">
<title>Node1&#45;&gt;Node6</title>
<g id="a_edge5_Node000001_Node000006"><a xlink:title=" ">
<path fill="none" stroke="#63b8ff" d="M399.67,-164.98C381.89,-156.5 354.35,-143.35 333.82,-133.54"/>
<polygon fill="#63b8ff" stroke="#63b8ff" points="335.19,-130.32 324.66,-129.17 332.17,-136.64 335.19,-130.32"/>
</a>
</g>
</g>
<!-- Node7 -->
<g id="Node000007" class="node">
<title>Node7</title>
<g id="a_Node000007"><a xlink:href="Common_8h.html" target="_top" xlink:title=" ">
<polygon fill="white" stroke="#666666" points="421.5,-129 351.5,-129 351.5,-110 421.5,-110 421.5,-129"/>
<text text-anchor="middle" x="386.5" y="-117" font-family="Helvetica,sans-Serif" font-size="10.00">Common.h</text>
</a>
</g>
</g>
<!-- Node1&#45;&gt;Node7 -->
<g id="edge6_Node000001_Node000007" class="edge">
<title>Node1&#45;&gt;Node7</title>
<g id="a_edge6_Node000001_Node000007"><a xlink:title=" ">
<path fill="none" stroke="#63b8ff" d="M412.38,-164.75C408.14,-157.49 401.97,-146.95 396.72,-137.98"/>
<polygon fill="#63b8ff" stroke="#63b8ff" points="399.59,-135.95 391.52,-129.09 393.55,-139.49 399.59,-135.95"/>
</a>
</g>
</g>
<!-- Node8 -->
<g id="Node000008" class="node">
<title>Node8</title>
<g id="a_Node000008"><a xlink:href="Game_8h.html" target="_top" xlink:title=" ">
<polygon fill="white" stroke="#666666" points="571,-129 516,-129 516,-110 571,-110 571,-129"/>
<text text-anchor="middle" x="543.5" y="-117" font-family="Helvetica,sans-Serif" font-size="10.00">Game.h</text>
</a>
</g>
</g>
<!-- Node1&#45;&gt;Node8 -->
<g id="edge7_Node000001_Node000008" class="edge">
<title>Node1&#45;&gt;Node8</title>
<g id="a_edge7_Node000001_Node000008"><a xlink:title=" ">
<path fill="none" stroke="#63b8ff" d="M437.74,-164.98C458.2,-156.38 490.03,-142.99 513.43,-133.15"/>
<polygon fill="#63b8ff" stroke="#63b8ff" points="515.03,-136.27 522.89,-129.17 512.31,-129.82 515.03,-136.27"/>
</a>
</g>
</g>
<!-- Node9 -->
<g id="Node000009" class="node">
<title>Node9</title>
<g id="a_Node000009"><a xlink:href="Map_8h.html" target="_top" xlink:title=" ">
<polygon fill="white" stroke="#666666" points="438,-74 391,-74 391,-55 438,-55 438,-74"/>
<text text-anchor="middle" x="414.5" y="-62" font-family="Helvetica,sans-Serif" font-size="10.00">Map.h</text>
</a>
</g>
</g>
<!-- Node1&#45;&gt;Node9 -->
<g id="edge14_Node000001_Node000009" class="edge">
<title>Node1&#45;&gt;Node9</title>
<g id="a_edge14_Node000001_Node000009"><a xlink:title=" ">
<path fill="none" stroke="#63b8ff" d="M421.34,-164.9C426.31,-152.72 433.94,-129.73 430.5,-110 428.93,-101 425.7,-91.42 422.56,-83.46"/>
<polygon fill="#63b8ff" stroke="#63b8ff" points="425.73,-81.97 418.61,-74.12 419.28,-84.69 425.73,-81.97"/>
</a>
</g>
</g>
<!-- Node11 -->
<g id="Node000011" class="node">
<title>Node11</title>
<g id="a_Node000011"><a xlink:href="Player_8h.html" target="_top" xlink:title=" ">
<polygon fill="white" stroke="#666666" points="512.5,-74 456.5,-74 456.5,-55 512.5,-55 512.5,-74"/>
<text text-anchor="middle" x="484.5" y="-62" font-family="Helvetica,sans-Serif" font-size="10.00">Player.h</text>
</a>
</g>
</g>
<!-- Node1&#45;&gt;Node11 -->
<g id="edge15_Node000001_Node000011" class="edge">
<title>Node1&#45;&gt;Node11</title>
<g id="a_edge15_Node000001_Node000011"><a xlink:title=" ">
<path fill="none" stroke="#63b8ff" d="M422.9,-164.99C428.55,-156.04 437.69,-141.56 445.5,-129 455.19,-113.42 466.11,-95.61 473.93,-82.82"/>
<polygon fill="#63b8ff" stroke="#63b8ff" points="477,-84.5 479.23,-74.15 471.03,-80.86 477,-84.5"/>
</a>
</g>
</g>
<!-- Node12 -->
<g id="Node000012" class="node">
<title>Node12</title>
<g id="a_Node000012"><a xlink:href="Treasure_8h.html" target="_top" xlink:title=" ">
<polygon fill="white" stroke="#666666" points="598,-74 531,-74 531,-55 598,-55 598,-74"/>
<text text-anchor="middle" x="564.5" y="-62" font-family="Helvetica,sans-Serif" font-size="10.00">Treasure.h</text>
</a>
</g>
</g>
<!-- Node1&#45;&gt;Node12 -->
<g id="edge17_Node000001_Node000012" class="edge">
<title>Node1&#45;&gt;Node12</title>
<g id="a_edge17_Node000001_Node000012"><a xlink:title=" ">
<path fill="none" stroke="#63b8ff" d="M462.79,-167.25C505.61,-160.3 565.35,-147.56 579.5,-129 589.56,-115.81 583.2,-96.93 575.91,-83.18"/>
<polygon fill="#63b8ff" stroke="#63b8ff" points="578.75,-81.1 570.67,-74.24 572.71,-84.64 578.75,-81.1"/>
</a>
</g>
</g>
<!-- Node13 -->
<g id="Node000013" class="node">
<title>Node13</title>
<g id="a_Node000013"><a xlink:href="Pirate_8h.html" target="_top" xlink:title=" ">
<polygon fill="white" stroke="#666666" points="670.5,-74 616.5,-74 616.5,-55 670.5,-55 670.5,-74"/>
<text text-anchor="middle" x="643.5" y="-62" font-family="Helvetica,sans-Serif" font-size="10.00">Pirate.h</text>
</a>
</g>
</g>
<!-- Node1&#45;&gt;Node13 -->
<g id="edge18_Node000001_Node000013" class="edge">
<title>Node1&#45;&gt;Node13</title>
<g id="a_edge18_Node000001_Node000013"><a xlink:title=" ">
<path fill="none" stroke="#63b8ff" d="M462.84,-170.73C501.23,-166.51 556.28,-155.85 596.5,-129 613.55,-117.62 626.72,-97.87 634.72,-83.41"/>
<polygon fill="#63b8ff" stroke="#63b8ff" points="637.89,-84.9 639.42,-74.42 631.69,-81.66 637.89,-84.9"/>
</a>
</g>
</g>
<!-- Node14 -->
<g id="Node000014" class="node">
<title>Node14</title>
<g id="a_Node000014"><a xlink:href="Trap_8h.html" target="_top" xlink:title=" ">
<polygon fill="white" stroke="#666666" points="734.5,-74 688.5,-74 688.5,-55 734.5,-55 734.5,-74"/>
<text text-anchor="middle" x="711.5" y="-62" font-family="Helvetica,sans-Serif" font-size="10.00">Trap.h</text>
</a>
</g>
</g>
<!-- Node1&#45;&gt;Node14 -->
<g id="edge16_Node000001_Node000014" class="edge">
<title>Node1&#45;&gt;Node14</title>
<g id="a_edge16_Node000001_Node000014"><a xlink:title=" ">
<path fill="none" stroke="#63b8ff" d="M462.87,-168.86C505.31,-163.32 569.74,-151.78 621.5,-129 648.92,-116.93 676.49,-95.85 693.76,-81.31"/>
<polygon fill="#63b8ff" stroke="#63b8ff" points="696.5,-83.56 701.79,-74.38 691.93,-78.26 696.5,-83.56"/>
</a>
</g>
</g>
<!-- Node8&#45;&gt;Node9 -->
<g id="edge8_Node000008_Node000009" class="edge">
<title>Node8&#45;&gt;Node9</title>
<g id="a_edge8_Node000008_Node000009"><a xlink:title=" ">
<path fill="none" stroke="#63b8ff" d="M522.77,-109.98C501.74,-101.34 468.95,-87.87 444.96,-78.02"/>
<polygon fill="#63b8ff" stroke="#63b8ff" points="446.18,-74.73 435.6,-74.17 443.52,-81.21 446.18,-74.73"/>
</a>
</g>
</g>
<!-- Node8&#45;&gt;Node11 -->
<g id="edge10_Node000008_Node000011" class="edge">
<title>Node8&#45;&gt;Node11</title>
<g id="a_edge10_Node000008_Node000011"><a xlink:title=" ">
<path fill="none" stroke="#63b8ff" d="M534.02,-109.98C525.3,-102.15 512.16,-90.34 501.6,-80.86"/>
<polygon fill="#63b8ff" stroke="#63b8ff" points="503.93,-78.25 494.15,-74.17 499.25,-83.46 503.93,-78.25"/>
</a>
</g>
</g>
<!-- Node8&#45;&gt;Node12 -->
<g id="edge11_Node000008_Node000012" class="edge">
<title>Node8&#45;&gt;Node12</title>
<g id="a_edge11_Node000008_Node000012"><a xlink:title=" ">
<path fill="none" stroke="#63b8ff" d="M546.97,-109.75C549.78,-102.65 553.84,-92.4 557.35,-83.56"/>
<polygon fill="#63b8ff" stroke="#63b8ff" points="560.67,-84.68 561.1,-74.09 554.16,-82.1 560.67,-84.68"/>
</a>
</g>
</g>
<!-- Node8&#45;&gt;Node13 -->
<g id="edge12_Node000008_Node000013" class="edge">
<title>Node8&#45;&gt;Node13</title>
<g id="a_edge12_Node000008_Node000013"><a xlink:title=" ">
<path fill="none" stroke="#63b8ff" d="M559.57,-109.98C575.36,-101.61 599.72,-88.7 618.13,-78.95"/>
<polygon fill="#63b8ff" stroke="#63b8ff" points="619.94,-81.95 627.14,-74.17 616.67,-75.76 619.94,-81.95"/>
</a>
</g>
</g>
<!-- Node8&#45;&gt;Node14 -->
<g id="edge13_Node000008_Node000014" class="edge">
<title>Node8&#45;&gt;Node14</title>
<g id="a_edge13_Node000008_Node000014"><a xlink:title=" ">
<path fill="none" stroke="#63b8ff" d="M570.49,-109.98C599.95,-100.69 647.13,-85.81 678.7,-75.85"/>
<polygon fill="#63b8ff" stroke="#63b8ff" points="679.88,-79.15 688.36,-72.8 677.77,-72.47 679.88,-79.15"/>
</a>
</g>
</g>
<!-- Node10 -->
<g id="Node000010" class="node">
<title>Node10</title>
<g id="a_Node000010"><a xlink:title=" ">
<polygon fill="#e0e0e0" stroke="#999999" points="441,-19 388,-19 388,0 441,0 441,-19"/>
<text text-anchor="middle" x="414.5" y="-7" font-family="Helvetica,sans-Serif" font-size="10.00">stdint.h</text>
</a>
</g>
</g>
<!-- Node9&#45;&gt;Node10 -->
<g id="edge9_Node000009_Node000010" class="edge">
<title>Node9&#45;&gt;Node10</title>
<g id="a_edge9_Node000009_Node000010"><a xlink:title=" ">
<path fill="none" stroke="#63b8ff" d="M414.5,-54.75C414.5,-47.8 414.5,-37.85 414.5,-29.13"/>
<polygon fill="#63b8ff" stroke="#63b8ff" points="418,-29.09 414.5,-19.09 411,-29.09 418,-29.09"/>
</a>
</g>
</g>
</g>
</svg>
