<?xml version="1.0" encoding="UTF-8" standalone="no"?>
<!DOCTYPE svg PUBLIC "-//W3C//DTD SVG 1.1//EN"
 "http://www.w3.org/Graphics/SVG/1.1/DTD/svg11.dtd">
<!-- Generated by graphviz version 2.43.0 (0)
 -->
<!-- Title: Source/Player.c Pages: 1 -->
<svg width="366pt" height="82pt"
 viewBox="0.00 0.00 365.50 82.00" xmlns="http://www.w3.org/2000/svg" xmlns:xlink="http://www.w3.org/1999/xlink">
<g id="graph0" class="graph" transform="scale(1 1) rotate(0) translate(4 78)">
<title>Source/Player.c</title>
<!-- Node1 -->
<g id="Node000001" class="node">
<title>Node1</title>
<g id="a_Node000001"><a xlink:title=" ">
<polygon fill="#999999" stroke="#666666" points="213,-74 122,-74 122,-55 213,-55 213,-74"/>
<text text-anchor="middle" x="167.5" y="-62" font-family="Helvetica,sans-Serif" font-size="10.00">Source/Player.c</text>
</a>
</g>
</g>
<!-- Node2 -->
<g id="Node000002" class="node">
<title>Node2</title>
<g id="a_Node000002"><a xlink:title=" ">
<polygon fill="#e0e0e0" stroke="#999999" points="53,-19 0,-19 0,0 53,0 53,-19"/>
<text text-anchor="middle" x="26.5" y="-7" font-family="Helvetica,sans-Serif" font-size="10.00">stdlib.h</text>
</a>
</g>
</g>
<!-- Node1&#45;&gt;Node2 -->
<g id="edge1_Node000001_Node000002" class="edge">
<title>Node1&#45;&gt;Node2</title>
<g id="a_edge1_Node000001_Node000002"><a xlink:title=" ">
<path fill="none" stroke="#63b8ff" d="M144.85,-54.98C121.65,-46.27 85.38,-32.63 59.1,-22.75"/>
<polygon fill="#63b8ff" stroke="#63b8ff" points="60.16,-19.41 49.57,-19.17 57.7,-25.97 60.16,-19.41"/>
</a>
</g>
</g>
<!-- Node3 -->
<g id="Node000003" class="node">
<title>Node3</title>
<g id="a_Node000003"><a xlink:title=" ">
<polygon fill="#e0e0e0" stroke="#999999" points="121.5,-19 71.5,-19 71.5,0 121.5,0 121.5,-19"/>
<text text-anchor="middle" x="96.5" y="-7" font-family="Helvetica,sans-Serif" font-size="10.00">stdio.h</text>
</a>
</g>
</g>
<!-- Node1&#45;&gt;Node3 -->
<g id="edge2_Node000001_Node000003" class="edge">
<title>Node1&#45;&gt;Node3</title>
<g id="a_edge2_Node000001_Node000003"><a xlink:title=" ">
<path fill="none" stroke="#63b8ff" d="M156.09,-54.98C145.39,-47 129.16,-34.88 116.34,-25.31"/>
<polygon fill="#63b8ff" stroke="#63b8ff" points="118.22,-22.35 108.11,-19.17 114.03,-27.96 118.22,-22.35"/>
</a>
</g>
</g>
<!-- Node4 -->
<g id="Node000004" class="node">
<title>Node4</title>
<g id="a_Node000004"><a xlink:title=" ">
<polygon fill="#e0e0e0" stroke="#999999" points="195.5,-19 139.5,-19 139.5,0 195.5,0 195.5,-19"/>
<text text-anchor="middle" x="167.5" y="-7" font-family="Helvetica,sans-Serif" font-size="10.00">assert.h</text>
</a>
</g>
</g>
<!-- Node1&#45;&gt;Node4 -->
<g id="edge3_Node000001_Node000004" class="edge">
<title>Node1&#45;&gt;Node4</title>
<g id="a_edge3_Node000001_Node000004"><a xlink:title=" ">
<path fill="none" stroke="#63b8ff" d="M167.5,-54.75C167.5,-47.8 167.5,-37.85 167.5,-29.13"/>
<polygon fill="#63b8ff" stroke="#63b8ff" points="171,-29.09 167.5,-19.09 164,-29.09 171,-29.09"/>
</a>
</g>
</g>
<!-- Node5 -->
<g id="Node000005" class="node">
<title>Node5</title>
<g id="a_Node000005"><a xlink:href="Common_8h.html" target="_top" xlink:title=" ">
<polygon fill="white" stroke="#666666" points="283.5,-19 213.5,-19 213.5,0 283.5,0 283.5,-19"/>
<text text-anchor="middle" x="248.5" y="-7" font-family="Helvetica,sans-Serif" font-size="10.00">Common.h</text>
</a>
</g>
</g>
<!-- Node1&#45;&gt;Node5 -->
<g id="edge4_Node000001_Node000005" class="edge">
<title>Node1&#45;&gt;Node5</title>
<g id="a_edge4_Node000001_Node000005"><a xlink:title=" ">
<path fill="none" stroke="#63b8ff" d="M180.51,-54.98C192.96,-46.84 211.96,-34.41 226.71,-24.76"/>
<polygon fill="#63b8ff" stroke="#63b8ff" points="228.8,-27.57 235.25,-19.17 224.96,-21.72 228.8,-27.57"/>
</a>
</g>
</g>
<!-- Node6 -->
<g id="Node000006" class="node">
<title>Node6</title>
<g id="a_Node000006"><a xlink:href="Player_8h.html" target="_top" xlink:title=" ">
<polygon fill="white" stroke="#666666" points="357.5,-19 301.5,-19 301.5,0 357.5,0 357.5,-19"/>
<text text-anchor="middle" x="329.5" y="-7" font-family="Helvetica,sans-Serif" font-size="10.00">Player.h</text>
</a>
</g>
</g>
<!-- Node1&#45;&gt;Node6 -->
<g id="edge5_Node000001_Node000006" class="edge">
<title>Node1&#45;&gt;Node6</title>
<g id="a_edge5_Node000001_Node000006"><a xlink:title=" ">
<path fill="none" stroke="#63b8ff" d="M193.53,-54.98C220.61,-46.13 263.21,-32.19 293.51,-22.28"/>
<polygon fill="#63b8ff" stroke="#63b8ff" points="294.85,-25.52 303.27,-19.08 292.68,-18.87 294.85,-25.52"/>
</a>
</g>
</g>
</g>
</svg>
