<?xml version="1.0" encoding="UTF-8" standalone="no"?>
<!DOCTYPE svg PUBLIC "-//W3C//DTD SVG 1.1//EN"
 "http://www.w3.org/Graphics/SVG/1.1/DTD/svg11.dtd">
<!-- Generated by graphviz version 2.43.0 (0)
 -->
<!-- Title: Game_s Pages: 1 -->
<svg width="481pt" height="93pt"
 viewBox="0.00 0.00 480.50 93.00" xmlns="http://www.w3.org/2000/svg" xmlns:xlink="http://www.w3.org/1999/xlink">

<svg id="main" version="1.1" xmlns="http://www.w3.org/2000/svg" xmlns:xlink="http://www.w3.org/1999/xlink" xml:space="preserve" onload="init(evt)">
<style type="text/css"><![CDATA[
.node, .edge {opacity: 0.7;}
.node.selected, .edge.selected {opacity: 1;}
.edge:hover path { stroke: red; }
.edge:hover polygon { stroke: red; fill: red; }
]]></style>
<script type="application/ecmascript" xlink:href="svg.min.js"/>
<svg id="graph" class="graph">
<g id="graph0" class="graph" transform="scale(1 1) rotate(0) translate(4 89)">
<title>Game_s</title>
<!-- Node1 -->
<g id="Node000001" class="node">
<title>Node1</title>
<g id="a_Node000001"><a xlink:title="Main game structure.">
<polygon fill="#999999" stroke="#666666" points="244,-19 188,-19 188,0 244,0 244,-19"/>
<text text-anchor="middle" x="216" y="-7" font-family="Helvetica,sans-Serif" font-size="10.00">Game_s</text>
</a>
</g>
</g>
<!-- Node2 -->
<g id="Node000002" class="node">
<title>Node2</title>
<g id="a_Node000002"><a xlink:href="structMap__s.html" target="_top" xlink:title="Represents the game map.">
<polygon fill="white" stroke="#666666" points="48,-85 0,-85 0,-66 48,-66 48,-85"/>
<text text-anchor="middle" x="24" y="-73" font-family="Helvetica,sans-Serif" font-size="10.00">Map_s</text>
</a>
</g>
</g>
<!-- Node2&#45;&gt;Node1 -->
<g id="edge1_Node000001_Node000002" class="edge">
<title>Node2&#45;&gt;Node1</title>
<g id="a_edge1_Node000001_Node000002"><a xlink:title=" ">
<path fill="none" stroke="#9a32cd" stroke-dasharray="5,2" d="M47.93,-61.1C62.83,-53.2 82.6,-43.51 101,-37 129.78,-26.82 164.02,-19.52 187.61,-15.19"/>
<polygon fill="#9a32cd" stroke="#9a32cd" points="46.03,-58.14 38.9,-65.98 49.36,-64.3 46.03,-58.14"/>
</a>
</g>
<text text-anchor="middle" x="113.5" y="-40" font-family="Helvetica,sans-Serif" font-size="10.00" fill="grey"> map</text>
</g>
<!-- Node3 -->
<g id="Node000003" class="node">
<title>Node3</title>
<g id="a_Node000003"><a xlink:href="structPlayer__s.html" target="_top" xlink:title="Represents the player character.">
<polygon fill="white" stroke="#666666" points="124,-85 66,-85 66,-66 124,-66 124,-85"/>
<text text-anchor="middle" x="95" y="-73" font-family="Helvetica,sans-Serif" font-size="10.00">Player_s</text>
</a>
</g>
</g>
<!-- Node3&#45;&gt;Node1 -->
<g id="edge2_Node000001_Node000003" class="edge">
<title>Node3&#45;&gt;Node1</title>
<g id="a_edge2_Node000001_Node000003"><a xlink:title=" ">
<path fill="none" stroke="#9a32cd" stroke-dasharray="5,2" d="M112.85,-59.51C122.29,-52.07 134.32,-43.35 146,-37 159.36,-29.74 175.13,-23.58 188.31,-19.03"/>
<polygon fill="#9a32cd" stroke="#9a32cd" points="110.56,-56.86 104.99,-65.87 114.97,-62.3 110.56,-56.86"/>
</a>
</g>
<text text-anchor="middle" x="163" y="-40" font-family="Helvetica,sans-Serif" font-size="10.00" fill="grey"> player</text>
</g>
<!-- Node4 -->
<g id="Node000004" class="node">
<title>Node4</title>
<g id="a_Node000004"><a xlink:href="structTreasure__s.html" target="_top" xlink:title="Represents the treasure.">
<polygon fill="white" stroke="#666666" points="210,-85 142,-85 142,-66 210,-66 210,-85"/>
<text text-anchor="middle" x="176" y="-73" font-family="Helvetica,sans-Serif" font-size="10.00">Treasure_s</text>
</a>
</g>
</g>
<!-- Node4&#45;&gt;Node1 -->
<g id="edge3_Node000001_Node000004" class="edge">
<title>Node4&#45;&gt;Node1</title>
<g id="a_edge3_Node000001_Node000004"><a xlink:title=" ">
<path fill="none" stroke="#9a32cd" stroke-dasharray="5,2" d="M181.11,-56.22C183.32,-49.86 186.27,-42.86 190,-37 194.22,-30.37 200.32,-24.04 205.56,-19.23"/>
<polygon fill="#9a32cd" stroke="#9a32cd" points="177.7,-55.4 178.08,-65.99 184.38,-57.48 177.7,-55.4"/>
</a>
</g>
<text text-anchor="middle" x="212" y="-40" font-family="Helvetica,sans-Serif" font-size="10.00" fill="grey"> treasure</text>
</g>
<!-- Node5 -->
<g id="Node000005" class="node">
<title>Node5</title>
<g id="a_Node000005"><a xlink:href="structPirate__s.html" target="_top" xlink:title="Represents the pirate enemy.">
<polygon fill="white" stroke="#666666" points="284,-85 228,-85 228,-66 284,-66 284,-85"/>
<text text-anchor="middle" x="256" y="-73" font-family="Helvetica,sans-Serif" font-size="10.00">Pirate_s</text>
</a>
</g>
</g>
<!-- Node5&#45;&gt;Node1 -->
<g id="edge4_Node000001_Node000005" class="edge">
<title>Node5&#45;&gt;Node1</title>
<g id="a_edge4_Node000001_Node000005"><a xlink:title=" ">
<path fill="none" stroke="#9a32cd" stroke-dasharray="5,2" d="M245.91,-56.76C242.25,-50.46 238.02,-43.36 234,-37 230.2,-30.98 225.7,-24.36 222.15,-19.24"/>
<polygon fill="#9a32cd" stroke="#9a32cd" points="243.07,-58.84 251.09,-65.76 249.14,-55.35 243.07,-58.84"/>
</a>
</g>
<text text-anchor="middle" x="256" y="-40" font-family="Helvetica,sans-Serif" font-size="10.00" fill="grey"> pirate</text>
</g>
<!-- Node6 -->
<g id="Node000006" class="node">
<title>Node6</title>
<g id="a_Node000006"><a xlink:href="structTrap__s.html" target="_top" xlink:title="Represents a trap.">
<polygon fill="white" stroke="#666666" points="349.5,-85 302.5,-85 302.5,-66 349.5,-66 349.5,-85"/>
<text text-anchor="middle" x="326" y="-73" font-family="Helvetica,sans-Serif" font-size="10.00">Trap_s</text>
</a>
</g>
</g>
<!-- Node6&#45;&gt;Node1 -->
<g id="edge5_Node000001_Node000006" class="edge">
<title>Node6&#45;&gt;Node1</title>
<g id="a_edge5_Node000001_Node000006"><a xlink:title=" ">
<path fill="none" stroke="#9a32cd" stroke-dasharray="5,2" d="M307.76,-59.24C298.58,-51.97 287.07,-43.48 276,-37 264.11,-30.04 250.05,-23.74 238.54,-19.03"/>
<polygon fill="#9a32cd" stroke="#9a32cd" points="305.79,-62.14 315.76,-65.72 310.19,-56.7 305.79,-62.14"/>
</a>
</g>
<text text-anchor="middle" x="302.5" y="-40" font-family="Helvetica,sans-Serif" font-size="10.00" fill="grey"> trap</text>
</g>
<!-- Node7 -->
<g id="Node000007" class="node">
<title>Node7</title>
<g id="a_Node000007"><a xlink:href="structTransitionAction__s.html" target="_top" xlink:title="Transition action pair.">
<polygon fill="white" stroke="#666666" points="472.5,-85 367.5,-85 367.5,-66 472.5,-66 472.5,-85"/>
<text text-anchor="middle" x="420" y="-73" font-family="Helvetica,sans-Serif" font-size="10.00">TransitionAction_s</text>
</a>
</g>
</g>
<!-- Node7&#45;&gt;Node1 -->
<g id="edge6_Node000001_Node000007" class="edge">
<title>Node7&#45;&gt;Node1</title>
<g id="a_edge6_Node000001_Node000007"><a xlink:title=" ">
<path fill="none" stroke="#9a32cd" stroke-dasharray="5,2" d="M389.16,-62.26C369.07,-54.52 342.18,-44.57 318,-37 293.38,-29.3 264.94,-22.04 244.35,-17.07"/>
<polygon fill="#9a32cd" stroke="#9a32cd" points="388.13,-65.62 398.72,-65.98 390.67,-59.09 388.13,-65.62"/>
</a>
</g>
<text text-anchor="middle" x="390" y="-40" font-family="Helvetica,sans-Serif" font-size="10.00" fill="grey"> transitionMatrix</text>
</g>
</g>
</svg>
</svg>

<style type='text/css'>
<![CDATA[
[data-mouse-over-selected='false'] { opacity: 0.7; }
[data-mouse-over-selected='true']  { opacity: 1.0; }
]]>
</style>
<script type="application/ecmascript"><![CDATA[
document.addEventListener('DOMContentLoaded', (event) => {
  highlightEdges();
  highlightAdjacentNodes();
});
]]></script>
</svg>
