<?xml version="1.0" encoding="UTF-8" standalone="no"?>
<!DOCTYPE svg PUBLIC "-//W3C//DTD SVG 1.1//EN"
 "http://www.w3.org/Graphics/SVG/1.1/DTD/svg11.dtd">
<!-- Generated by graphviz version 2.43.0 (0)
 -->
<!-- Title: Header/Trap.h Pages: 1 -->
<svg width="274pt" height="137pt"
 viewBox="0.00 0.00 273.50 137.00" xmlns="http://www.w3.org/2000/svg" xmlns:xlink="http://www.w3.org/1999/xlink">
<g id="graph0" class="graph" transform="scale(1 1) rotate(0) translate(4 133)">
<title>Header/Trap.h</title>
<!-- Node1 -->
<g id="Node000001" class="node">
<title>Node1</title>
<g id="a_Node000001"><a xlink:title=" ">
<polygon fill="#999999" stroke="#666666" points="162,-129 78,-129 78,-110 162,-110 162,-129"/>
<text text-anchor="middle" x="120" y="-117" font-family="Helvetica,sans-Serif" font-size="10.00">Header/Trap.h</text>
</a>
</g>
</g>
<!-- Node2 -->
<g id="Node000002" class="node">
<title>Node2</title>
<g id="a_Node000002"><a xlink:href="Game_8h.html" target="_top" xlink:title=" ">
<polygon fill="white" stroke="#666666" points="166.5,-74 73.5,-74 73.5,-55 166.5,-55 166.5,-74"/>
<text text-anchor="middle" x="120" y="-62" font-family="Helvetica,sans-Serif" font-size="10.00">Header/Game.h</text>
</a>
</g>
</g>
<!-- Node1&#45;&gt;Node2 -->
<g id="edge1_Node000001_Node000002" class="edge">
<title>Node1&#45;&gt;Node2</title>
<g id="a_edge1_Node000001_Node000002"><a xlink:title=" ">
<path fill="none" stroke="#63b8ff" d="M120,-99.66C120,-90.93 120,-80.99 120,-74.09"/>
<polygon fill="#63b8ff" stroke="#63b8ff" points="116.5,-99.75 120,-109.75 123.5,-99.75 116.5,-99.75"/>
</a>
</g>
</g>
<!-- Node3 -->
<g id="Node000003" class="node">
<title>Node3</title>
<g id="a_Node000003"><a xlink:href="Game_8c.html" target="_top" xlink:title=" ">
<polygon fill="white" stroke="#666666" points="90,-19 0,-19 0,0 90,0 90,-19"/>
<text text-anchor="middle" x="45" y="-7" font-family="Helvetica,sans-Serif" font-size="10.00">Source/Game.c</text>
</a>
</g>
</g>
<!-- Node1&#45;&gt;Node3 -->
<g id="edge4_Node000001_Node000003" class="edge">
<title>Node1&#45;&gt;Node3</title>
<g id="a_edge4_Node000001_Node000003"><a xlink:title=" ">
<path fill="none" stroke="#63b8ff" d="M96.5,-104.16C85.56,-96.43 73.18,-86.02 65,-74 53.29,-56.8 48.16,-32.4 46.15,-19.42"/>
<polygon fill="#63b8ff" stroke="#63b8ff" points="94.6,-107.1 104.85,-109.76 98.49,-101.29 94.6,-107.1"/>
</a>
</g>
</g>
<!-- Node5 -->
<g id="Node000005" class="node">
<title>Node5</title>
<g id="a_Node000005"><a xlink:href="Trap_8c.html" target="_top" xlink:title=" ">
<polygon fill="white" stroke="#666666" points="265.5,-74 184.5,-74 184.5,-55 265.5,-55 265.5,-74"/>
<text text-anchor="middle" x="225" y="-62" font-family="Helvetica,sans-Serif" font-size="10.00">Source/Trap.c</text>
</a>
</g>
</g>
<!-- Node1&#45;&gt;Node5 -->
<g id="edge5_Node000001_Node000005" class="edge">
<title>Node1&#45;&gt;Node5</title>
<g id="a_edge5_Node000001_Node000005"><a xlink:title=" ">
<path fill="none" stroke="#63b8ff" d="M146.02,-105.37C165.3,-95.63 191.05,-82.64 207.82,-74.17"/>
<polygon fill="#63b8ff" stroke="#63b8ff" points="144.22,-102.35 136.87,-109.98 147.37,-108.6 144.22,-102.35"/>
</a>
</g>
</g>
<!-- Node2&#45;&gt;Node3 -->
<g id="edge2_Node000002_Node000003" class="edge">
<title>Node2&#45;&gt;Node3</title>
<g id="a_edge2_Node000002_Node000003"><a xlink:title=" ">
<path fill="none" stroke="#63b8ff" d="M99.69,-49.15C86.14,-39.57 68.76,-27.29 57.27,-19.17"/>
<polygon fill="#63b8ff" stroke="#63b8ff" points="97.76,-52.07 107.95,-54.98 101.8,-46.36 97.76,-52.07"/>
</a>
</g>
</g>
<!-- Node4 -->
<g id="Node000004" class="node">
<title>Node4</title>
<g id="a_Node000004"><a xlink:href="main_8c.html" target="_top" xlink:title="Main program for the game, handling the game loop and events.">
<polygon fill="white" stroke="#666666" points="158,-19 108,-19 108,0 158,0 158,-19"/>
<text text-anchor="middle" x="133" y="-7" font-family="Helvetica,sans-Serif" font-size="10.00">main.c</text>
</a>
</g>
</g>
<!-- Node2&#45;&gt;Node4 -->
<g id="edge3_Node000002_Node000004" class="edge">
<title>Node2&#45;&gt;Node4</title>
<g id="a_edge3_Node000002_Node000004"><a xlink:title=" ">
<path fill="none" stroke="#63b8ff" d="M124.55,-44.95C126.71,-36.15 129.18,-26.06 130.89,-19.09"/>
<polygon fill="#63b8ff" stroke="#63b8ff" points="121.13,-44.2 122.15,-54.75 127.93,-45.87 121.13,-44.2"/>
</a>
</g>
</g>
</g>
</svg>
